 <svg version="1.0" xmlns="http://www.w3.org/2000/svg"  width="300.000000pt" height="185.000000pt" viewBox="0 0 300.000000 185.000000"  preserveAspectRatio="xMidYMid meet">  <g transform="translate(0.000000,185.000000) scale(0.100000,-0.100000)" fill="#000000" stroke="none"> <path d="M1235 1744 c-11 -3 -46 -10 -78 -16 -33 -6 -61 -17 -64 -25 -3 -8 -8 -10 -12 -5 -4 6 -30 2 -69 -10 -34 -10 -60 -23 -57 -28 3 -6 0 -7 -8 -4 -28 11 -140 -57 -205 -123 -34 -36 -60 -69 -57 -73 3 -4 -2 -10 -10 -14 -8 -3 -15 -15 -15 -26 0 -11 -4 -20 -10 -20 -14 0 -12 -50 3 -79 13 -27 83 -49 152 -49 41 -1 158 -18 140 -21 -5 -1 -43 -6 -83 -11 -131 -17 -203 -73 -218 -170 -4 -25 -14 -50 -23 -57 -14 -10 -14 -12 3 -19 12 -5 21 -3 24 4 2 7 8 9 14 6 13 -8 161 -24 217 -23 48 0 74 -22 64 -56 -5 -17 -2 -17 18 5 22 23 23 26 6 32 -9 4 -20 14 -23 21 -3 9 -25 14 -62 16 -31 1 -65 4 -75 7 -18 6 -18 7 -1 25 9 11 15 22 11 25 -3 3 -13 -6 -22 -20 -13 -19 -26 -26 -50 -26 -48 0 -88 17 -78 32 4 7 6 21 5 30 -7 42 70 127 103 114 8 -3 15 -1 15 4 0 4 15 12 33 15 17 4 38 12 45 17 8 7 12 7 12 -1 0 -8 9 -7 29 3 26 14 30 14 50 -8 17 -18 18 -25 8 -36 -10 -12 -9 -12 4 -2 12 9 19 9 29 -1 12 -10 12 -9 1 6 -15 18 -25 17 137 23 23 1 45 4 48 7 3 3 -42 5 -100 4 -111 -2 -116 0 -121 45 -2 21 -15 37 -15 20 0 -15 -67 -16 -72 -1 -2 5 -10 11 -18 13 -8 2 -28 8 -43 14 -34 14 -37 15 -37 3 0 -5 8 -12 18 -14 11 -3 9 -5 -8 -6 -51 -2 -70 9 -65 38 5 23 4 23 -4 5 -11 -25 -38 -38 -47 -22 -5 7 -2 8 6 3 8 -5 11 -3 8 6 -3 8 -11 13 -17 11 -6 -1 -11 2 -11 8 0 5 5 10 11 10 8 0 7 5 -1 15 -7 9 -10 18 -6 22 3 3 6 1 6 -6 0 -7 4 -10 9 -6 6 3 14 -3 20 -12 7 -12 11 -13 11 -5 0 8 -10 22 -22 32 -21 16 -21 18 -5 34 9 10 17 22 17 27 0 6 4 8 9 5 8 -6 16 6 20 29 4 21 74 83 88 78 10 -4 13 0 11 12 -2 10 4 20 12 22 13 4 13 3 0 -7 -13 -10 -12 -11 3 -6 10 3 21 6 23 6 3 0 2 5 -2 11 -4 7 -1 10 7 7 8 -3 20 2 27 9 8 8 23 11 33 8 10 -4 19 -2 19 3 0 10 53 27 118 37 25 4 39 11 36 17 -4 6 1 8 15 3 16 -5 20 -3 15 9 -3 9 -1 16 6 16 6 0 8 -4 5 -10 -3 -5 3 -10 15 -10 13 0 19 4 14 11 -4 8 0 9 15 4 11 -3 21 -2 21 2 0 5 19 10 43 12 23 2 53 4 67 5 14 2 53 4 88 4 39 1 61 6 57 12 -6 10 -187 12 -230 4z m-215 -68 c0 -2 -7 -7 -16 -10 -8 -3 -12 -2 -9 4 6 10 25 14 25 6z"/> <path d="M1473 1728 c-22 -10 -32 -29 -15 -27 19 3 33 -2 27 -11 -3 -5 -2 -10 4 -10 5 0 13 5 16 10 3 6 15 10 26 10 20 0 26 15 9 23 -6 3 -5 4 2 3 9 -2 26 -23 34 -44 1 -1 9 1 18 4 14 5 15 9 5 15 -8 4 -10 11 -7 14 4 4 13 3 20 -1 7 -5 51 -8 98 -7 94 2 195 -20 187 -41 -3 -7 1 -13 8 -13 7 0 11 5 9 12 -7 17 33 16 48 -2 7 -9 12 -18 11 -20 -10 -13 3 -27 40 -43 46 -22 72 -25 62 -10 -9 15 8 12 33 -6 13 -9 22 -11 22 -4 0 6 -13 16 -30 21 -16 6 -27 15 -24 20 4 6 10 6 17 1 7 -5 28 -13 47 -17 23 -5 30 -10 20 -14 -8 -3 -16 -12 -18 -20 -2 -12 1 -11 20 1 24 15 53 13 43 -3 -4 -5 0 -6 7 -4 15 6 97 -59 88 -69 -3 -3 -18 6 -33 20 -15 14 -27 21 -27 16 0 -12 52 -47 63 -44 18 5 112 -111 103 -127 -3 -5 1 -14 9 -21 20 -17 19 -44 -2 -61 -15 -12 -16 -12 -9 6 7 18 5 18 -14 -2 -21 -23 -36 -31 -26 -14 3 5 -3 11 -13 14 -14 3 -18 1 -14 -9 3 -9 -2 -14 -17 -14 -14 0 -19 4 -14 12 5 8 2 9 -10 5 -10 -4 -25 -7 -34 -8 -11 0 -12 -2 -4 -6 19 -8 14 -22 -8 -20 -14 1 -19 8 -18 24 2 13 6 23 10 23 4 0 8 4 8 10 0 5 -7 7 -15 4 -9 -4 -15 -11 -14 -18 3 -25 -3 -31 -32 -32 -24 -1 -28 1 -15 8 9 5 16 14 16 21 0 8 -3 8 -8 2 -13 -19 -35 -17 -28 2 6 14 5 16 -5 6 -7 -7 -22 -13 -34 -13 -12 0 -26 -5 -33 -12 -7 -7 -12 -8 -12 -4 0 5 -6 3 -13 -3 -11 -8 -16 -5 -26 15 -6 14 -9 30 -6 35 4 5 2 9 -4 9 -16 0 -19 -24 -4 -38 20 -21 16 -27 -20 -29 -24 -2 -37 4 -51 23 -18 26 -18 26 1 15 18 -9 20 -7 15 14 -2 14 -9 25 -14 25 -5 0 -6 -4 -3 -10 3 -5 2 -10 -4 -10 -12 0 -25 19 -18 26 3 3 14 6 25 7 16 1 18 4 9 18 -6 10 -15 15 -19 13 -5 -3 -6 -10 -3 -15 4 -5 0 -9 -8 -9 -21 0 -29 -27 -11 -34 9 -3 13 -10 10 -15 -4 -5 1 -16 9 -24 19 -20 19 -27 0 -27 -8 0 -15 7 -15 16 0 14 -3 14 -15 4 -23 -19 -18 -30 16 -30 l32 0 -44 -41 c-24 -23 -36 -36 -26 -29 21 15 23 -2 2 -20 -18 -15 -19 -37 -2 -43 7 -3 4 -6 -7 -6 -15 -1 -17 -6 -12 -33 14 -72 70 -103 109 -60 22 24 24 42 8 80 -13 30 -12 36 6 60 26 36 36 69 24 77 -7 4 -8 -1 -4 -12 6 -15 4 -16 -8 -6 -8 7 -26 9 -40 6 -17 -4 -21 -3 -14 6 6 6 39 14 73 17 57 6 62 5 56 -10 -5 -13 -9 -14 -14 -5 -10 16 -33 -26 -27 -49 3 -12 5 -11 6 5 2 34 18 36 17 3 -1 -26 -5 -30 -28 -30 -15 0 -30 -5 -34 -12 -8 -13 23 -38 45 -37 9 0 4 5 -12 11 -33 12 -26 28 12 28 40 0 53 -18 30 -41 -19 -19 -25 -65 -11 -85 4 -6 16 -16 27 -22 16 -9 11 -10 -31 -9 -27 0 -57 -3 -65 -8 -11 -6 -12 -5 -1 6 22 24 13 31 -14 10 -34 -26 -54 -26 -88 0 -24 19 -37 14 -16 -7 8 -8 -78 -10 -193 -3 -23 2 -48 0 -54 -4 -6 -4 -14 -3 -18 3 -4 6 -11 8 -16 5 -5 -4 -9 -1 -9 5 0 7 -9 5 -22 -4 -15 -10 -47 -17 -93 -17 -38 -1 -56 -4 -40 -6 17 -2 37 -7 45 -10 8 -3 20 -5 25 -4 14 4 356 11 511 11 l132 0 31 42 c36 49 39 78 11 103 -20 18 -20 18 5 41 25 23 34 68 15 79 -5 3 -10 11 -10 17 0 7 4 7 13 1 6 -5 19 -9 27 -8 23 1 50 -45 50 -85 0 -19 -9 -53 -21 -74 -23 -43 -20 -51 11 -41 25 8 59 76 60 120 0 23 3 27 10 15 9 -13 12 -12 25 4 17 22 17 22 20 -19 3 -36 -15 -105 -27 -105 -4 0 -8 -7 -8 -15 0 -25 -39 -58 -54 -46 -7 6 -16 8 -19 4 -4 -3 -7 0 -7 8 0 11 -2 11 -8 1 -11 -16 -45 -4 -38 13 3 9 -4 8 -25 -3 -30 -17 -41 -39 -14 -29 8 4 17 2 20 -3 4 -6 26 -10 51 -10 42 0 45 -1 38 -22 -4 -13 -11 -26 -17 -30 -7 -4 -2 -14 14 -27 20 -18 21 -20 4 -14 -20 6 -20 6 -2 -15 10 -11 18 -33 17 -49 -3 -43 -1 -46 16 -28 26 26 28 9 2 -19 -22 -24 -26 -25 -43 -11 -12 9 -15 14 -7 15 7 0 10 5 7 10 -3 6 -1 10 5 10 6 0 8 5 4 12 -5 8 -11 6 -20 -6 -8 -12 -13 -13 -16 -5 -3 8 -7 6 -12 -6 -4 -11 -4 -16 0 -12 10 9 33 -24 34 -47 0 -19 1 -18 23 2 13 12 28 22 34 22 16 0 24 44 10 55 -6 6 -17 20 -24 32 -10 18 -9 22 8 26 10 3 19 1 19 -4 0 -4 7 -6 16 -2 14 5 15 3 5 -15 -18 -34 -12 -39 8 -7 10 17 17 38 15 48 -1 9 3 18 9 18 23 2 52 -3 67 -13 11 -6 6 -8 -17 -5 -18 2 -30 0 -27 -4 2 -4 1 -9 -3 -12 -5 -2 -3 -2 4 -1 7 2 10 -3 7 -10 -3 -8 -1 -17 5 -21 6 -3 11 -1 11 6 0 8 4 8 15 -1 12 -10 15 -10 15 3 0 8 5 17 12 19 21 7 0 38 -39 56 -21 9 -41 21 -44 25 -3 5 -28 6 -55 3 l-48 -6 36 37 c21 21 44 55 53 75 18 45 19 137 1 161 -16 21 -38 23 -30 2 12 -31 -27 -29 -59 4 l-32 31 50 0 c92 0 125 13 125 52 0 29 -68 148 -104 182 -41 39 -146 116 -158 116 -5 0 -38 14 -74 31 -36 16 -96 37 -132 45 -37 8 -92 22 -122 31 -30 9 -80 17 -110 19 -222 13 -256 13 -277 2z m37 -8 c0 -5 -5 -10 -11 -10 -5 0 -7 5 -4 10 3 6 8 10 11 10 2 0 4 -4 4 -10z m485 -60 c-3 -5 -1 -10 5 -10 6 0 8 -5 4 -12 -6 -10 -4 -10 8 0 10 8 26 10 42 6 31 -7 25 -24 -7 -18 l-22 5 23 -10 c12 -6 22 -13 22 -17 0 -3 -10 -3 -22 0 -13 4 -32 9 -42 11 -11 3 -23 10 -27 16 -9 15 -1 39 13 39 5 0 6 -4 3 -10z m189 -441 c17 -25 11 -47 -18 -71 -44 -37 -112 -7 -99 43 13 47 90 66 117 28z m122 -24 c16 -39 8 -91 -21 -132 -28 -40 -33 -25 -9 24 28 54 29 73 9 113 -10 19 -11 30 -5 30 6 0 18 -16 26 -35z m-367 12 c-2 -1 -13 -9 -24 -17 -19 -14 -19 -14 -6 3 7 9 18 17 24 17 6 0 8 -1 6 -3z m19 -29 c-7 -13 -18 -26 -25 -31 -6 -4 -10 -18 -8 -32 1 -17 -3 -25 -12 -25 -10 0 -13 6 -9 16 3 9 6 24 6 35 0 20 33 59 50 59 6 0 5 -9 -2 -22z m32 -8 c-6 -11 -15 -20 -20 -20 -13 0 -12 8 3 25 18 21 29 18 17 -5z m-90 -34 c0 -3 -4 -8 -10 -11 -5 -3 -10 -1 -10 4 0 6 5 11 10 11 6 0 10 -2 10 -4z m65 -6 c-3 -5 -10 -10 -16 -10 -5 0 -9 5 -9 10 0 6 7 10 16 10 8 0 12 -4 9 -10z m207 -37 c23 -21 23 -34 -3 -67 -24 -30 -69 -35 -93 -10 -20 20 -20 43 0 72 18 27 69 30 96 5z m-282 -13 c0 -5 -4 -10 -10 -10 -5 0 -10 5 -10 10 0 6 5 10 10 10 6 0 10 -4 10 -10z m85 -7 c8 -21 7 -23 -2 -22 -5 1 -7 5 -5 10 1 5 -2 9 -8 9 -5 0 -10 5 -10 10 0 17 17 11 25 -7z m-45 3 c0 -17 -24 -65 -30 -61 -11 7 8 65 21 65 5 0 9 -2 9 -4z m29 -39 c13 -17 4 -28 -17 -20 -10 4 -13 2 -8 -5 4 -7 2 -12 -4 -12 -7 0 -9 7 -6 16 3 9 6 20 6 25 0 13 16 11 29 -4z m430 -138 c-24 -24 -25 -24 -32 1 -4 17 -2 20 14 15 15 -5 18 -3 12 12 -6 16 -5 16 9 5 15 -12 15 -15 -3 -33z m-58 21 c18 -10 27 -40 12 -40 -14 1 -43 27 -43 39 0 14 6 14 31 1z"/> <path d="M2110 1200 c0 -5 5 -10 10 -10 6 0 10 5 10 10 0 6 -4 10 -10 10 -5 0 -10 -4 -10 -10z"/> <path d="M2100 1060 c0 -5 5 -10 10 -10 6 0 10 5 10 10 0 6 -4 10 -10 10 -5 0 -10 -4 -10 -10z"/> <path d="M1410 1700 c11 -7 3 -10 -30 -11 -25 -1 -37 -3 -27 -6 38 -10 13 -21 -50 -22 -36 0 -69 -3 -72 -7 -3 -3 33 -4 82 -3 49 2 87 7 87 13 0 5 6 2 13 -7 6 -9 25 -19 42 -23 28 -7 29 -6 13 9 -9 9 -24 17 -32 17 -9 0 -16 5 -16 10 0 6 5 10 11 10 8 0 8 5 -1 15 -7 8 -18 15 -24 15 -6 0 -4 -5 4 -10z"/> <path d="M1250 1686 c0 -8 60 -12 72 -4 8 4 -4 8 -29 8 -24 0 -43 -2 -43 -4z"/> <path d="M1527 1675 c-7 -17 -37 -20 -55 -5 -7 5 -3 0 8 -12 l20 -22 22 22 c12 12 19 24 16 27 -3 3 -8 -1 -11 -10z"/> <path d="M1648 1683 c6 -2 18 -2 25 0 6 3 1 5 -13 5 -14 0 -19 -2 -12 -5z"/> <path d="M1700 1670 c-13 -8 -12 -10 3 -10 9 0 17 5 17 10 0 12 -1 12 -20 0z"/> <path d="M1845 1670 c28 -12 37 -12 30 0 -3 6 -16 10 -28 9 -21 0 -21 -1 -2 -9z"/> <path d="M1746 1657 c3 -10 9 -15 12 -12 3 3 0 11 -7 18 -10 9 -11 8 -5 -6z"/> <path d="M1779 1657 c5 -5 19 -7 32 -5 20 3 19 5 -9 9 -20 3 -29 2 -23 -4z"/> <path d="M1930 1660 c0 -5 5 -10 10 -10 6 0 10 5 10 10 0 6 -4 10 -10 10 -5 0 -10 -4 -10 -10z"/> <path d="M1127 1640 c3 -11 9 -20 13 -20 5 0 6 9 3 20 -3 11 -9 20 -13 20 -5 0 -6 -9 -3 -20z"/> <path d="M1155 1650 c3 -5 21 -10 38 -9 31 1 31 1 7 9 -36 11 -52 11 -45 0z"/> <path d="M1560 1641 c0 -5 6 -8 14 -5 8 3 23 1 33 -5 11 -6 25 -6 33 -1 12 7 11 9 -5 9 -11 0 -32 3 -47 7 -18 4 -28 2 -28 -5z"/> <path d="M1693 1632 c-9 -12 -14 -14 -20 -6 -6 9 -12 7 -23 -4 -13 -14 -12 -15 3 -9 10 4 17 2 17 -6 0 -6 10 -2 22 11 12 12 20 24 17 26 -3 3 -10 -3 -16 -12z"/> <path d="M1010 1630 c0 -14 -77 -63 -89 -56 -5 4 -13 1 -16 -5 -4 -5 -14 -8 -22 -5 -8 3 -27 -3 -43 -14 -31 -22 -45 -26 -35 -10 15 24 -6 6 -38 -33 -33 -40 -34 -44 -21 -67 12 -21 14 -22 12 -5 -3 22 25 69 35 58 4 -3 7 -1 7 6 0 7 9 9 24 5 16 -4 25 -1 29 10 4 11 1 16 -11 16 -15 0 -15 2 -2 10 10 6 16 6 18 0 2 -6 9 -7 14 -4 6 4 8 2 4 -4 -3 -6 -2 -13 3 -17 16 -9 -8 -65 -25 -58 -13 5 -12 9 3 27 18 21 18 21 -3 3 -12 -10 -29 -15 -40 -11 -17 5 -18 5 -1 -6 9 -6 17 -23 18 -38 0 -26 1 -26 9 -4 13 30 18 28 14 -5 l-4 -28 11 28 c6 15 17 27 24 27 7 0 16 7 19 16 4 9 2 13 -5 8 -7 -4 -10 -1 -7 7 3 8 10 13 16 12 6 -2 9 4 6 12 -4 8 -10 12 -15 9 -5 -3 -9 2 -9 10 0 21 32 36 60 29 17 -4 21 -2 18 8 -5 15 30 46 71 66 l26 11 -27 1 c-16 1 -28 -3 -28 -9z"/> <path d="M1231 1628 c-1 -14 7 -18 37 -17 20 1 48 5 62 10 18 6 10 8 -32 5 -35 -1 -59 2 -62 8 -2 6 -5 3 -5 -6z"/> <path d="M1776 1628 c7 -10 35 -10 51 0 8 5 -1 8 -21 8 -19 0 -32 -4 -30 -8z"/> <path d="M1173 1616 c1 -7 -12 -11 -33 -10 -28 1 -36 -3 -37 -17 -1 -11 3 -19 8 -19 6 0 7 5 4 10 -4 6 8 10 29 10 21 0 36 5 36 12 0 9 3 9 12 0 9 -9 8 -15 -8 -26 -19 -14 -19 -15 3 -35 24 -23 33 -26 33 -12 0 5 -9 13 -20 16 -11 3 -20 10 -20 15 0 5 7 7 15 4 8 -4 15 -1 15 6 0 6 5 8 10 5 6 -3 10 -1 10 4 0 6 -4 11 -10 11 -5 0 -10 6 -10 14 0 7 -9 16 -20 19 -11 3 -18 0 -17 -7z"/> <path d="M1923 1618 c-10 -15 -55 -17 -65 -3 -5 6 -12 5 -20 -3 -11 -11 -10 -13 2 -10 16 3 21 -21 8 -39 -6 -7 -4 -14 3 -19 8 -5 9 -3 4 6 -6 10 -4 12 8 7 20 -7 22 4 5 21 -9 9 -9 12 0 12 7 0 15 -7 18 -15 4 -8 13 -15 21 -15 11 0 8 6 -8 20 -18 14 -20 19 -8 20 8 0 21 -6 28 -12 11 -11 12 -10 6 1 -7 11 -2 13 24 8 20 -4 30 -3 26 3 -3 6 -15 10 -26 10 -11 0 -17 5 -14 10 3 6 4 10 1 10 -3 0 -9 -6 -13 -12z"/> <path d="M1051 1611 c-10 -6 -9 -10 3 -14 8 -3 18 -2 21 3 8 13 -9 20 -24 11z"/> <path d="M1431 1611 c-22 -14 -22 -39 0 -44 10 -3 17 -1 14 3 -3 5 3 14 12 20 15 8 12 9 -12 5 l-30 -6 25 15 c14 8 21 15 15 15 -5 1 -16 -3 -24 -8z"/> <path d="M1490 1610 c8 -5 26 -10 39 -10 32 0 24 6 -19 14 -25 4 -31 3 -20 -4z"/> <path d="M1589 1607 c6 -8 26 -18 44 -22 38 -9 36 -9 63 -1 15 5 24 2 28 -10 4 -12 2 -15 -9 -10 -8 3 -16 1 -16 -4 -1 -6 -2 -14 -3 -20 -1 -10 -3 -11 -33 -9 -11 0 -13 3 -5 6 6 2 12 9 12 15 0 6 -6 6 -15 -2 -8 -7 -13 -16 -10 -20 3 -5 1 -11 -5 -15 -5 -3 -10 2 -10 12 0 14 -2 15 -9 4 -10 -15 -3 -51 10 -51 5 0 8 5 7 11 -2 6 5 16 14 22 14 9 21 7 37 -10 11 -11 17 -24 14 -27 -4 -3 -1 -6 5 -6 17 0 15 21 -3 34 -14 10 -13 14 5 34 12 12 25 20 30 17 4 -3 3 6 -3 19 -10 21 -18 24 -65 23 -29 -1 -56 3 -60 8 -4 6 -13 11 -21 13 -11 2 -12 0 -2 -11z"/> <path d="M1733 1613 c9 -3 17 -12 17 -21 0 -13 2 -14 9 -4 10 17 53 12 59 -6 3 -9 -3 -11 -21 -7 -23 6 -26 3 -32 -29 -8 -39 -14 -43 -34 -23 -11 10 -13 9 -9 -3 3 -8 14 -16 26 -18 16 -3 22 2 22 17 0 11 5 23 10 26 6 4 7 11 4 17 -4 6 -1 8 7 6 8 -3 13 -12 11 -19 -1 -8 4 -5 13 5 8 11 15 23 15 27 0 15 -27 27 -70 31 -25 3 -37 3 -27 1z"/> <path d="M1552 1590 c-11 -18 -10 -20 12 -20 13 0 33 -3 43 -6 17 -5 17 -5 0 9 -11 9 -25 13 -33 10 -10 -4 -12 0 -8 11 8 22 1 20 -14 -4z"/> <path d="M1278 1593 c7 -3 16 -2 19 1 4 3 -2 6 -13 5 -11 0 -14 -3 -6 -6z"/> <path d="M1340 1590 c0 -5 -8 -10 -17 -10 -12 0 -8 -5 11 -15 27 -14 31 -14 39 0 4 8 12 13 18 10 5 -4 9 -2 9 3 0 11 -24 22 -46 22 -8 0 -14 -4 -14 -10z"/> <path d="M1012 1573 c9 -10 13 -25 11 -33 -2 -8 4 -5 15 8 11 12 26 22 34 22 10 0 9 -3 -2 -10 -8 -5 -13 -10 -10 -11 42 -8 48 -5 38 17 -10 22 -28 23 -55 1 -9 -7 -13 -5 -13 7 0 9 -7 16 -17 16 -14 0 -15 -2 -1 -17z"/> <path d="M1498 1583 c7 -3 16 -2 19 1 4 3 -2 6 -13 5 -11 0 -14 -3 -6 -6z"/> <path d="M1946 1581 c-3 -5 5 -11 19 -13 30 -6 32 -2 6 12 -11 6 -22 6 -25 1z"/> <path d="M1134 1565 c-10 -8 -14 -15 -8 -15 6 0 17 7 24 15 16 19 9 19 -16 0z"/> <path d="M1254 1563 c-11 -8 -18 -19 -16 -24 1 -5 -3 -20 -8 -32 -10 -20 -10 -20 3 -4 8 9 20 17 28 17 9 1 8 4 -5 11 -14 9 -15 13 -6 19 8 5 25 -5 47 -27 28 -27 38 -32 49 -22 10 8 11 16 3 31 -8 16 -17 19 -40 14 -30 -6 -37 2 -19 20 16 16 -14 13 -36 -3z m86 -45 c0 -12 -1 -19 -3 -17 -1 2 -9 12 -16 22 -12 14 -11 17 3 17 10 0 16 -8 16 -22z"/> <path d="M1463 1555 c-30 -15 -18 -27 13 -13 17 8 27 8 38 -1 17 -14 29 -1 12 14 -15 14 -37 14 -63 0z"/> <path d="M2040 1559 c0 -5 9 -9 20 -9 11 0 20 2 20 4 0 2 -9 6 -20 9 -11 3 -20 1 -20 -4z"/> <path d="M990 1550 c12 -8 12 -10 -5 -10 -18 -1 -18 -2 -4 -13 15 -11 15 -15 2 -32 -15 -19 -15 -19 -8 4 5 15 3 21 -3 17 -6 -3 -13 0 -16 6 -3 7 -3 -2 0 -20 3 -20 1 -39 -7 -48 -9 -11 -4 -10 19 3 44 25 58 103 19 103 -7 0 -6 -4 3 -10z"/> <path d="M1568 1544 c24 -17 39 -14 27 5 -3 6 -16 11 -28 11 l-21 0 22 -16z"/> <path d="M2146 1550 c-19 -6 -19 -7 1 -12 16 -4 20 -11 16 -26 -5 -21 12 -39 22 -22 3 5 1 10 -6 10 -8 0 -8 4 1 15 9 11 9 15 1 15 -7 0 -10 4 -6 9 8 14 -7 20 -29 11z"/> <path d="M917 1543 c-3 -5 -2 -15 2 -22 7 -10 10 -10 16 -1 4 6 3 16 -3 22 -5 5 -12 6 -15 1z"/> <path d="M1143 1535 c-10 -10 -9 -16 1 -24 10 -9 15 -7 19 9 6 25 -4 32 -20 15z"/> <path d="M1401 1532 c-10 -10 -16 -12 -19 -4 -2 7 -8 12 -14 12 -7 0 -7 -4 -1 -12 13 -17 14 -58 2 -58 -5 0 -9 5 -9 12 0 6 -3 8 -7 4 -9 -9 25 -36 44 -36 7 0 13 4 13 10 0 5 -6 7 -13 4 -9 -3 -13 2 -11 18 1 13 3 26 3 31 1 4 8 7 16 7 10 0 15 -10 15 -27 0 -32 12 -24 15 11 4 33 -15 49 -34 28z"/> <path d="M1915 1533 c17 -11 32 -16 33 -11 2 4 8 5 14 2 6 -4 9 -1 6 6 -2 8 -10 16 -18 18 -8 3 -10 0 -5 -8 6 -10 4 -12 -8 -7 -44 18 -50 18 -22 0z"/> <path d="M1983 1544 c3 -4 2 -15 -4 -25 -6 -13 -6 -19 0 -19 6 0 8 -6 5 -14 -7 -17 37 -62 56 -58 16 2 53 -52 42 -62 -12 -13 -21 -5 -27 25 -5 24 -10 28 -19 19 -8 -9 -8 -14 1 -17 7 -2 15 -20 19 -38 6 -34 28 -53 40 -34 3 5 0 16 -6 24 -10 12 -9 15 5 15 17 0 17 1 1 19 -17 18 -17 19 1 24 16 4 16 5 1 6 -10 0 -18 7 -18 14 0 7 -7 22 -16 33 -11 13 -14 14 -11 4 3 -11 -2 -16 -15 -17 -14 -1 -18 3 -14 14 4 9 -2 23 -15 34 -19 17 -20 19 -5 25 11 4 24 -2 36 -16 11 -13 20 -18 20 -11 0 7 5 9 10 6 6 -4 8 -10 6 -14 -3 -4 4 -20 15 -37 10 -16 19 -24 19 -19 0 6 -7 21 -16 33 -14 20 -14 22 1 22 12 0 9 8 -13 30 -17 17 -34 30 -38 30 -5 0 -3 -5 4 -12 25 -25 10 -28 -19 -4 -26 22 -65 39 -46 20z m33 -81 c-7 -7 -26 7 -26 19 0 6 6 6 15 -2 9 -7 13 -15 11 -17z"/> <path d="M1803 1529 c-13 -5 -23 -11 -23 -13 0 -3 6 -3 13 0 9 3 13 -3 12 -18 -2 -20 -6 -23 -40 -20 -33 3 -36 2 -24 -11 10 -11 16 -12 21 -3 5 7 8 7 8 0 0 -6 10 -10 23 -9 12 1 30 -2 40 -7 23 -12 22 4 -3 25 -24 20 -25 33 -4 45 23 13 4 22 -23 11z"/> <path d="M2087 1533 c-10 -10 -8 -23 4 -23 5 0 8 4 4 9 -3 5 3 12 12 14 14 4 15 5 2 6 -9 0 -19 -2 -22 -6z"/> <path d="M1477 1524 c-3 -5 1 -15 9 -22 16 -14 18 -5 5 17 -5 7 -11 9 -14 5z"/> <path d="M1857 1523 c-4 -3 1 -12 11 -20 11 -9 13 -16 6 -19 -6 -3 -9 -16 -6 -29 3 -16 0 -25 -9 -25 -7 0 -9 -3 -6 -6 10 -11 37 17 37 38 0 10 4 16 10 13 5 -3 7 0 4 9 -3 8 -13 17 -22 21 -14 5 -14 7 -2 15 13 8 13 10 -1 10 -9 0 -19 -3 -22 -7z"/> <path d="M1527 1503 c3 -7 9 -13 14 -13 5 0 9 -7 9 -16 0 -8 4 -13 9 -9 5 3 12 1 16 -5 3 -5 14 -10 23 -10 12 0 9 4 -8 13 -15 8 -25 21 -24 34 0 15 -5 20 -22 19 -13 0 -20 -6 -17 -13z"/> <path d="M2110 1510 c0 -6 7 -10 15 -10 8 0 15 2 15 4 0 2 -7 6 -15 10 -8 3 -15 1 -15 -4z"/> <path d="M1043 1488 c-33 -24 -44 -42 -19 -32 8 3 17 1 21 -5 8 -14 25 -14 25 -1 0 6 -7 10 -15 10 -8 0 -15 5 -15 11 0 6 7 8 16 5 8 -3 12 -2 9 4 -3 6 1 10 9 10 9 0 16 5 16 10 0 15 -12 12 -47 -12z"/> <path d="M1257 1499 c10 -10 10 -16 0 -28 -9 -12 -9 -13 1 -7 15 9 15 1 1 -25 -10 -20 -10 -20 16 -3 14 9 22 20 17 23 -5 3 -11 15 -13 25 -2 11 -11 21 -19 24 -12 4 -13 2 -3 -9z"/> <path d="M1830 1501 c0 -6 4 -13 10 -16 6 -3 7 1 4 9 -7 18 -14 21 -14 7z"/> <path d="M1920 1497 c0 -28 28 -87 41 -87 7 0 9 -9 5 -25 -5 -18 -3 -23 8 -19 8 3 12 14 9 27 -4 18 -3 19 7 7 9 -12 10 -9 8 15 -2 22 -8 30 -23 30 -13 0 -26 12 -37 35 -11 21 -18 28 -18 17z m66 -76 c-4 -6 -14 -7 -23 -4 -15 6 -14 7 3 13 22 9 29 6 20 -9z"/> <path d="M1586 1492 c-3 -6 -1 -14 5 -17 14 -9 20 -2 10 14 -6 8 -11 9 -15 3z"/> <path d="M2195 1483 c-4 -11 -1 -13 11 -9 10 4 22 -1 30 -11 12 -16 13 -16 7 5 -4 17 -2 21 10 16 9 -3 19 -14 22 -25 6 -19 25 -27 25 -11 0 35 -93 65 -105 35z"/> <path d="M1950 1479 c0 -5 5 -7 10 -4 6 3 10 8 10 11 0 2 -4 4 -10 4 -5 0 -10 -5 -10 -11z"/> <path d="M2120 1474 c0 -16 9 -18 28 -5 10 6 9 10 -7 14 -14 3 -21 0 -21 -9z"/> <path d="M1170 1464 c0 -14 -2 -15 -17 -3 -15 12 -16 12 -8 -1 5 -8 8 -26 6 -39 -1 -13 1 -21 7 -17 6 3 12 0 15 -6 2 -7 6 6 8 30 3 24 1 46 -3 48 -4 3 -8 -2 -8 -12z"/> <path d="M1510 1469 c0 -6 -7 -9 -15 -5 -8 3 -19 -2 -24 -12 -6 -10 -11 -12 -11 -4 0 6 -7 12 -16 12 -14 0 -14 -3 -4 -15 14 -17 40 -20 40 -5 0 14 28 12 32 -2 3 -9 6 -9 12 0 4 7 2 12 -5 12 -8 0 -8 4 1 15 9 10 9 15 1 15 -6 0 -11 -5 -11 -11z"/> <path d="M1657 1467 c-5 -14 29 -62 36 -50 6 10 -9 49 -21 57 -6 3 -12 0 -15 -7z"/> <path d="M1323 1461 c1 -5 -7 -17 -18 -26 -20 -16 -20 -16 1 -6 18 9 23 7 27 -9 3 -11 11 -20 19 -19 10 0 10 2 1 6 -7 2 -13 9 -13 14 0 6 5 7 10 4 14 -9 12 19 -2 33 -14 14 -29 16 -25 3z"/> <path d="M2188 1450 c15 -12 18 -20 10 -23 -7 -2 -9 -8 -5 -13 8 -9 27 13 27 32 0 7 -12 14 -27 17 l-28 5 23 -18z"/> <path d="M772 1440 c10 -15 10 -22 0 -32 -6 -6 -12 -19 -12 -27 0 -9 8 -1 16 16 16 33 13 63 -6 63 -6 0 -6 -7 2 -20z"/> <path d="M1200 1450 c0 -5 5 -10 10 -10 6 0 10 5 10 10 0 6 -4 10 -10 10 -5 0 -10 -4 -10 -10z"/> <path d="M1707 1453 c-3 -5 -2 -15 4 -23 6 -11 9 -12 9 -2 0 7 5 10 11 6 7 -4 10 -1 7 6 -5 17 -24 24 -31 13z"/> <path d="M1904 1443 c2 -13 -1 -23 -7 -23 -8 0 -7 -4 1 -12 9 -9 15 -9 24 0 9 9 10 15 2 20 -6 4 -14 14 -18 22 -3 8 -4 5 -2 -7z"/> <path d="M2148 1453 c6 -2 12 -9 12 -14 0 -6 -9 -5 -22 1 -22 10 -22 10 -4 -4 10 -8 15 -20 10 -27 -4 -7 -3 -10 3 -6 6 4 19 0 29 -8 23 -17 44 -19 44 -4 0 6 -7 9 -15 5 -10 -4 -20 5 -29 29 -8 19 -21 35 -28 34 -10 0 -10 -2 0 -6z"/> <path d="M910 1440 c0 -5 -7 -10 -16 -10 -11 0 -14 -5 -10 -16 3 -9 6 -20 6 -25 0 -6 5 -7 11 -4 5 4 8 12 6 18 -2 7 2 20 11 30 10 11 11 17 4 17 -7 0 -12 -4 -12 -10z"/> <path d="M1105 1439 c-11 -17 1 -21 15 -4 8 9 8 15 2 15 -6 0 -14 -5 -17 -11z"/> <path d="M1528 1428 c-19 -19 -13 -24 11 -9 7 5 12 13 10 18 -2 5 -12 1 -21 -9z"/> <path d="M700 1425 c-12 -14 -12 -18 1 -25 10 -7 15 -5 17 5 6 28 -3 38 -18 20z"/> <path d="M989 1438 c-6 -21 -5 -38 1 -38 5 0 8 9 7 20 -1 17 -5 26 -8 18z"/> <path d="M1381 1418 c-7 -20 -3 -64 5 -56 5 5 12 78 7 78 -2 0 -7 -10 -12 -22z"/> <path d="M1410 1413 c0 -21 3 -24 9 -14 5 8 7 20 4 28 -8 21 -13 15 -13 -14z"/> <path d="M1766 1431 c-4 -5 -2 -12 3 -15 5 -4 12 -2 15 3 4 5 2 12 -3 15 -5 4 -12 2 -15 -3z"/> <path d="M1817 1420 c3 -11 8 -20 12 -20 4 0 7 9 8 20 1 11 -4 20 -12 20 -8 0 -11 -7 -8 -20z"/> <path d="M2240 1429 c0 -5 5 -7 10 -4 6 3 10 8 10 11 0 2 -4 4 -10 4 -5 0 -10 -5 -10 -11z"/> <path d="M926 1422 c-4 -7 -4 -12 -1 -12 4 0 -3 -16 -15 -36 -12 -19 -19 -38 -16 -42 4 -3 9 4 13 17 4 15 11 20 21 16 8 -3 19 0 24 7 11 18 10 51 -1 44 -5 -4 -11 -1 -13 6 -3 9 -6 9 -12 0z m11 -44 c-3 -8 -6 -5 -6 6 -1 11 2 17 5 13 3 -3 4 -12 1 -19z"/> <path d="M1030 1420 c0 -4 7 -7 15 -6 23 3 26 12 5 13 -11 1 -20 -2 -20 -7z"/> <path d="M1573 1408 c13 -19 28 -19 35 0 2 8 -3 10 -14 5 -10 -4 -15 -2 -11 4 3 5 0 10 -7 10 -11 0 -12 -4 -3 -19z"/> <path d="M1463 1404 c-3 -9 -12 -13 -22 -10 -15 6 -15 5 0 -6 9 -7 14 -19 12 -25 -3 -7 0 -13 7 -13 6 0 10 8 9 18 -3 31 1 43 11 37 6 -3 10 -1 10 4 0 17 -20 13 -27 -5z"/> <path d="M1634 1402 c-10 -15 -8 -18 16 -17 23 0 26 2 16 17 -14 22 -18 22 -32 0z"/> <path d="M1733 1393 c0 -15 -6 -29 -12 -31 -6 -2 -11 -8 -11 -13 0 -12 30 -12 31 1 1 6 2 14 3 19 0 5 4 12 8 16 7 8 -1 35 -11 35 -3 0 -7 -12 -8 -27z"/> <path d="M2125 1370 c4 -73 4 -72 15 -65 7 4 7 13 0 26 -6 11 -7 19 -2 19 6 0 12 9 15 21 3 12 3 18 -1 15 -3 -4 -11 4 -18 16 -11 20 -12 16 -9 -32z"/> <path d="M2356 1411 c-5 -7 -1 -17 9 -25 13 -9 16 -20 12 -37 -5 -20 -2 -25 13 -25 15 0 16 4 9 18 -5 10 -7 18 -3 18 4 0 0 8 -8 18 -9 9 -17 24 -20 32 -3 11 -6 11 -12 1z"/> <path d="M1230 1398 c1 -7 8 -24 16 -38 8 -14 13 -17 10 -8 -3 11 3 23 16 32 12 9 18 19 14 23 -4 4 -11 1 -15 -6 -6 -9 -11 -10 -15 -2 -10 15 -26 14 -26 -1z"/> <path d="M1863 1405 c4 -5 0 -19 -9 -33 -9 -13 -11 -21 -5 -18 21 13 32 44 19 52 -7 4 -10 3 -5 -1z"/> <path d="M2252 1392 c9 -10 13 -11 20 0 6 10 10 10 18 -2 8 -13 10 -12 10 3 0 13 -7 17 -29 15 -24 -2 -28 -5 -19 -16z"/> <path d="M787 1378 c-8 -30 -1 -35 12 -9 6 11 7 22 2 25 -5 3 -11 -4 -14 -16z"/> <path d="M1550 1390 c-10 -6 -11 -10 -2 -10 6 0 12 -5 12 -11 0 -5 -6 -7 -12 -3 -8 4 -9 3 -5 -2 5 -5 16 -9 25 -10 10 -1 29 -2 45 -3 15 0 27 -7 27 -13 0 -7 8 -22 17 -33 12 -16 14 -16 10 -3 -3 10 -2 20 3 23 13 8 13 45 0 45 -5 0 -7 -6 -4 -14 3 -8 1 -17 -4 -20 -5 -3 -12 4 -15 15 -3 12 -10 18 -17 14 -17 -10 -58 3 -62 20 -2 10 -7 12 -18 5z"/> <path d="M1800 1381 c0 -25 6 -27 13 -6 4 8 2 17 -3 20 -6 4 -10 -3 -10 -14z"/> <path d="M2321 1384 c0 -11 3 -14 6 -6 3 7 2 16 -1 19 -3 4 -6 -2 -5 -13z"/> <path d="M1053 1373 c0 -8 6 -12 14 -8 8 3 19 5 24 5 20 0 7 15 -14 16 -15 1 -24 -4 -24 -13z"/> <path d="M1126 1382 c2 -2 -2 -14 -8 -26 -10 -20 -10 -20 8 -4 12 12 15 21 8 27 -6 5 -9 6 -8 3z"/> <path d="M1509 1383 c-1 -4 -1 -12 0 -17 1 -4 -9 -17 -21 -29 -17 -15 -18 -18 -5 -14 19 7 24 -9 5 -16 -7 -3 -3 -6 10 -6 16 -1 22 5 22 20 0 18 2 19 15 9 8 -7 12 -16 9 -21 -3 -5 3 -6 12 -2 15 6 14 9 -8 28 -13 11 -23 26 -21 32 2 6 -1 14 -6 18 -6 3 -12 3 -12 -2z"/> <path d="M1772 1370 c0 -14 2 -19 5 -12 2 6 2 18 0 25 -3 6 -5 1 -5 -13z"/> <path d="M1818 1355 c-8 -19 -11 -32 -6 -29 10 7 31 55 25 60 -2 2 -10 -12 -19 -31z"/> <path d="M1890 1375 c-7 -9 -10 -18 -6 -22 3 -3 6 -1 6 6 0 8 7 11 15 7 9 -3 15 0 15 9 0 19 -14 19 -30 0z"/> <path d="M840 1370 c-8 -5 -18 -6 -22 -4 -4 3 -8 1 -8 -5 0 -15 18 -23 25 -11 3 5 11 10 17 10 6 0 5 -7 -3 -17 -12 -16 -12 -17 2 -6 9 7 19 10 22 6 4 -3 7 -2 7 4 0 18 -25 32 -40 23z"/> <path d="M1160 1376 c0 -2 7 -7 16 -10 8 -3 12 -2 9 4 -6 10 -25 14 -25 6z"/> <path d="M1350 1369 c0 -7 -10 -9 -26 -5 -18 5 -24 3 -19 -5 4 -6 1 -15 -6 -20 -12 -7 -11 -9 1 -9 18 0 80 49 63 50 -7 0 -13 -5 -13 -11z"/> <path d="M1398 1359 c-21 -23 -6 -26 16 -3 9 8 16 17 16 20 0 9 -16 1 -32 -17z"/> <path d="M1000 1358 c0 -7 4 -19 9 -27 7 -10 9 -7 8 12 -2 26 -17 39 -17 15z"/> <path d="M1210 1360 c-8 -5 -12 -12 -9 -15 4 -3 12 1 19 10 14 17 11 19 -10 5z"/> <path d="M2010 1356 c0 -8 5 -18 10 -21 6 -3 10 3 10 14 0 12 -4 21 -10 21 -5 0 -10 -6 -10 -14z"/> <path d="M2216 1354 c-5 -13 -9 -14 -22 -3 -13 11 -14 9 -2 -16 10 -21 14 -24 16 -12 4 20 18 22 25 5 2 -7 4 -1 3 14 -1 31 -11 36 -20 12z"/> <path d="M2290 1359 c0 -5 5 -7 10 -4 6 3 10 8 10 11 0 2 -4 4 -10 4 -5 0 -10 -5 -10 -11z"/> <path d="M965 1340 c-3 -6 1 -7 9 -4 18 7 21 14 7 14 -6 0 -13 -4 -16 -10z"/> <path d="M1860 1339 c0 -5 -4 -7 -10 -4 -11 7 -12 3 -14 -44 -1 -28 0 -28 17 -14 19 18 24 38 6 27 -7 -4 -10 -1 -7 7 3 8 10 13 16 12 6 -2 9 4 6 12 -7 17 -14 20 -14 4z"/> <path d="M2161 1334 c0 -11 3 -14 6 -6 3 7 2 16 -1 19 -3 4 -6 -2 -5 -13z"/> <path d="M1570 1332 c0 -5 7 -17 15 -28 15 -19 20 -8 9 20 -6 17 -24 22 -24 8z"/> <path d="M1750 1330 c-13 -8 -12 -10 4 -10 12 0 16 -5 13 -15 -7 -17 4 -27 20 -17 8 5 7 14 -5 29 -13 17 -21 20 -32 13z"/> <path d="M2278 1313 c2 -13 8 -21 13 -16 15 15 14 35 -2 38 -12 2 -15 -3 -11 -22z"/> <path d="M1167 1315 c2 -7 13 -11 24 -8 25 7 24 10 -5 15 -16 3 -23 1 -19 -7z"/> <path d="M1413 1314 c-7 -7 -9 -15 -5 -17 4 -3 13 1 19 9 7 7 9 15 5 17 -4 3 -13 -1 -19 -9z"/> <path d="M1711 1321 c-10 -6 -10 -10 -1 -16 13 -8 24 -1 19 14 -3 6 -10 7 -18 2z"/> <path d="M1030 1309 c0 -5 5 -7 10 -4 6 3 10 8 10 11 0 2 -4 4 -10 4 -5 0 -10 -5 -10 -11z"/> <path d="M1446 1301 c-5 -13 -4 -27 3 -34 16 -16 21 -4 12 29 -8 29 -8 29 -15 5z"/> <path d="M900 1301 c0 -10 19 -25 25 -20 1 2 -3 10 -11 17 -8 7 -14 8 -14 3z"/> <path d="M1620 1300 c-13 -8 -12 -10 3 -10 9 0 17 5 17 10 0 12 -1 12 -20 0z"/> <path d="M1130 1270 c0 -11 -7 -20 -15 -20 -8 0 -15 5 -15 10 0 6 -7 10 -16 10 -8 0 -12 -4 -9 -10 3 -5 1 -10 -4 -10 -6 0 -11 5 -11 11 0 6 -9 9 -20 6 -10 -3 -20 -1 -22 5 -4 10 -38 0 -38 -12 0 -10 78 -20 155 -20 46 0 64 -4 69 -15 4 -11 11 -13 29 -6 14 5 30 5 40 0 11 -7 17 -6 17 0 0 5 7 16 15 24 12 13 12 15 -5 20 -14 3 -17 1 -13 -11 5 -13 -1 -14 -46 -9 -29 3 -59 11 -65 17 -7 5 -16 7 -19 3 -4 -3 -7 1 -7 10 0 10 -4 17 -10 17 -5 0 -10 -9 -10 -20z"/> <path d="M1165 1281 c3 -6 14 -9 25 -8 24 2 15 17 -11 17 -11 0 -18 -4 -14 -9z"/> <path d="M1260 1280 c0 -5 9 -9 20 -7 31 5 36 17 7 17 -15 0 -27 -4 -27 -10z"/> <path d="M1320 1282 c0 -5 20 -9 44 -8 25 0 42 4 40 8 -7 11 -84 10 -84 0z"/> <path d="M1500 1279 c0 -5 5 -7 10 -4 6 3 10 8 10 11 0 2 -4 4 -10 4 -5 0 -10 -5 -10 -11z"/> <path d="M1643 1267 c1 -8 -16 -12 -53 -13 -94 -2 -110 -4 -110 -11 0 -5 68 -8 150 -7 83 0 150 -3 150 -8 0 -4 12 -3 26 2 14 6 37 10 50 10 14 0 23 4 20 9 -3 5 -35 7 -71 5 -52 -3 -65 -1 -65 11 0 9 -6 12 -16 8 -11 -4 -12 -8 -4 -13 7 -5 2 -9 -15 -12 -17 -4 -28 -1 -32 7 -6 18 -33 28 -30 12z"/> <path d="M1392 1249 c-4 -4 -25 -9 -46 -11 -23 -2 -41 -9 -44 -17 -3 -9 0 -11 8 -6 13 8 40 11 128 14 17 0 32 5 32 10 0 11 -67 20 -78 10z"/> <path d="M1858 1220 c-15 -4 -30 -5 -34 -1 -4 3 -4 1 -1 -5 7 -12 54 -7 63 7 3 5 4 9 2 8 -2 0 -15 -4 -30 -9z"/> <path d="M1405 1210 c-3 -5 1 -10 9 -10 9 0 16 5 16 10 0 6 -4 10 -9 10 -6 0 -13 -4 -16 -10z"/> <path d="M745 1160 c-11 -17 5 -32 21 -19 7 6 11 15 8 20 -7 12 -21 11 -29 -1z"/> <path d="M1125 1161 c-6 -5 -19 -12 -30 -15 -12 -3 -9 -4 8 -2 15 2 27 -1 27 -5 0 -5 9 -9 20 -9 11 0 20 5 20 10 0 6 -9 10 -21 10 -11 0 -17 5 -14 10 8 12 2 13 -10 1z"/> <path d="M1423 1163 c9 -2 23 -2 30 0 6 3 -1 5 -18 5 -16 0 -22 -2 -12 -5z"/> <path d="M957 1141 c-4 -17 -2 -18 14 -8 22 14 25 27 5 27 -7 0 -16 -9 -19 -19z"/> <path d="M1330 1150 c-9 -6 -10 -10 -3 -10 6 0 15 5 18 10 8 12 4 12 -15 0z"/> <path d="M1368 1153 c6 -2 18 -2 25 0 6 3 1 5 -13 5 -14 0 -19 -2 -12 -5z"/> <path d="M1527 1153 c-6 -9 103 -7 111 2 3 3 -20 5 -51 5 -31 0 -58 -3 -60 -7z"/> <path d="M1238 1133 c12 -2 30 -2 40 0 9 3 -1 5 -23 4 -22 0 -30 -2 -17 -4z"/> <path d="M2340 1119 c-6 -11 -10 -25 -8 -30 2 -5 8 4 15 21 13 34 9 40 -7 9z"/> <path d="M790 1094 c0 -9 7 -14 17 -12 25 5 28 28 4 28 -12 0 -21 -6 -21 -16z"/> <path d="M2024 1055 c-8 -20 4 -65 17 -65 6 0 6 7 -1 20 -6 12 -8 30 -5 40 7 23 -3 27 -11 5z"/> <path d="M980 1040 c8 -5 22 -9 30 -9 10 0 8 3 -5 9 -27 12 -43 12 -25 0z"/> <path d="M1030 1026 c0 -9 40 -13 46 -5 3 5 -6 9 -20 9 -14 0 -26 -2 -26 -4z"/> <path d="M1130 1006 c0 -2 7 -7 16 -10 8 -3 12 -2 9 4 -6 10 -25 14 -25 6z"/> <path d="M1488 1003 c-42 -6 -33 -18 12 -17 55 2 57 3 40 14 -8 5 -17 9 -20 8 -3 0 -17 -3 -32 -5z"/> <path d="M1180 983 c0 -6 5 -15 12 -19 7 -5 8 -3 3 6 -6 9 0 11 21 6 16 -3 35 -2 43 3 9 6 -1 10 -33 12 -31 3 -46 0 -46 -8z"/> <path d="M650 980 c0 -5 4 -10 9 -10 6 0 13 5 16 10 3 6 -1 10 -9 10 -9 0 -16 -4 -16 -10z"/> <path d="M532 959 c-32 -29 -68 -89 -76 -126 -6 -27 -2 -37 26 -68 29 -32 39 -37 79 -37 44 0 45 0 45 -31 0 -68 16 -214 26 -247 20 -62 65 -125 103 -143 109 -52 487 -76 900 -58 551 25 660 41 787 117 54 33 56 37 61 82 8 75 7 102 -2 102 -10 0 -9 18 0 35 3 6 1 30 -4 55 -6 31 -12 39 -16 28 -4 -12 -11 -14 -20 -9 -9 6 -10 11 -2 15 12 8 -6 56 -21 56 -5 0 -4 -9 2 -19 14 -28 14 -29 -22 -26 -17 1 -37 10 -43 18 -7 9 -16 13 -20 9 -5 -4 -5 2 -1 13 6 17 5 18 -6 7 -11 -11 -10 -16 5 -27 18 -13 18 -14 -2 -24 -33 -18 -49 -13 -56 19 -4 17 -13 30 -21 30 -9 0 -12 5 -9 10 3 6 -2 18 -11 27 -16 17 -17 16 -11 -8 6 -22 0 -32 -37 -65 -50 -44 -71 -52 -80 -28 -8 20 2 33 12 17 6 -9 11 -7 20 7 9 14 9 21 0 26 -7 4 -24 -8 -42 -28 -30 -35 -34 -36 -108 -40 -59 -4 -75 -2 -68 7 10 12 4 25 -12 25 -4 0 -7 -6 -5 -12 2 -14 -5 -14 -38 -3 -17 6 -18 5 -5 -5 13 -10 11 -11 -8 -7 -12 3 -20 2 -17 -2 2 -4 -9 -8 -26 -8 -22 0 -28 4 -24 15 5 12 3 13 -10 2 -21 -18 -30 -6 -10 14 9 9 12 16 6 16 -5 0 -13 -5 -16 -10 -4 -6 -11 -8 -16 -5 -5 3 -6 -1 -3 -9 7 -18 -17 -16 -40 4 -13 10 -20 10 -28 2 -14 -14 -88 -16 -88 -3 0 4 -61 7 -135 5 -122 -3 -135 -1 -135 14 -1 16 -2 16 -14 0 -14 -20 -36 -24 -36 -8 0 6 4 10 10 10 5 0 6 7 3 17 -5 12 -3 14 7 8 9 -5 11 -4 6 3 -11 19 -26 14 -26 -8 0 -11 -4 -20 -10 -20 -5 0 -10 4 -10 9 0 5 -9 11 -21 14 -19 5 -20 4 -5 -12 9 -10 13 -21 10 -24 -4 -4 -13 1 -21 11 -11 13 -14 13 -10 2 4 -12 -3 -15 -34 -12 -22 2 -39 9 -39 14 0 6 -11 7 -24 4 -14 -3 -36 -1 -49 5 -18 8 -30 8 -46 0 -17 -10 -22 -9 -27 3 -3 8 -14 14 -24 13 -16 -1 -17 -4 -7 -17 7 -8 19 -21 27 -28 8 -8 10 -11 4 -8 -7 3 -15 -1 -18 -10 -9 -23 -7 -31 4 -14 6 10 27 14 67 14 32 0 48 2 36 4 -36 6 -27 18 10 14 21 -2 34 -9 34 -18 0 -8 -4 -14 -9 -14 -5 0 -6 -5 -2 -11 4 -8 12 -2 21 16 12 22 19 26 41 21 40 -10 82 -14 78 -7 -2 3 20 4 50 3 30 -2 54 -8 54 -14 0 -5 4 -7 9 -3 5 3 12 1 16 -5 3 -5 11 -10 16 -10 6 0 7 5 4 10 -9 14 8 12 24 -2 11 -11 12 -10 6 1 -7 12 10 13 115 8 68 -4 145 -7 171 -7 48 0 48 0 38 -26 -13 -35 -3 -44 12 -11 11 24 42 38 67 29 7 -2 10 -9 6 -15 -3 -7 1 -4 10 7 11 14 22 17 43 12 15 -4 34 -7 41 -8 6 -1 12 -5 12 -10 0 -5 10 -3 23 3 12 7 36 14 54 16 27 3 31 1 26 -17 -3 -12 0 -20 6 -20 7 0 9 5 6 10 -9 14 8 13 23 -2 15 -15 15 -26 0 -25 -7 0 -22 -1 -33 -2 -16 -1 -17 -3 -6 -10 9 -6 24 -6 38 0 31 11 30 12 30 -6 0 -8 -6 -15 -13 -15 -6 0 -14 -9 -17 -20 -3 -11 -1 -20 4 -20 5 0 9 7 9 16 0 10 5 14 15 10 12 -4 15 2 13 33 -2 22 -5 38 -8 36 -3 -2 -17 5 -30 16 l-25 19 26 0 c15 0 37 -11 53 -27 25 -24 25 -27 10 -44 -15 -17 -15 -19 9 -30 14 -6 31 -25 37 -42 5 -17 13 -28 16 -24 3 3 0 15 -6 27 -16 29 -15 97 1 118 12 15 12 16 -2 5 -9 -7 -19 -9 -24 -5 -4 4 -5 -4 -2 -18 3 -14 1 -34 -4 -45 -8 -18 -9 -17 -5 4 3 14 0 31 -6 38 -6 7 -7 13 -2 13 5 1 -2 7 -16 15 l-25 14 25 2 c14 1 32 1 42 0 9 -1 55 5 102 13 48 8 93 13 101 9 9 -3 15 1 15 8 0 9 3 10 8 4 4 -6 20 -17 35 -25 27 -14 28 -14 7 -22 -13 -5 -20 -15 -18 -25 1 -10 -1 -24 -5 -30 -5 -9 -3 -13 7 -13 9 0 15 3 15 8 -1 4 0 10 1 15 1 4 3 12 4 19 2 18 26 22 26 4 0 -9 -5 -16 -11 -16 -6 0 -8 -9 -4 -20 5 -16 2 -20 -19 -20 -14 0 -26 -4 -26 -9 0 -6 9 -8 20 -6 26 5 47 -30 29 -51 -10 -12 -9 -13 5 -8 10 4 16 1 16 -9 0 -8 -7 -18 -16 -21 -9 -4 -14 -13 -10 -21 3 -9 0 -15 -8 -15 -8 0 -16 -7 -20 -15 -8 -21 -49 -36 -58 -21 -5 7 -8 5 -8 -6 0 -10 -7 -18 -16 -18 -9 0 -30 -6 -47 -14 -75 -32 -197 -48 -197 -25 0 4 -13 4 -30 -1 -17 -5 -30 -7 -30 -4 0 3 -9 0 -20 -6 -14 -7 -20 -7 -20 0 0 5 5 10 10 10 6 0 5 6 -2 14 -11 12 -14 11 -19 -8 -3 -13 -12 -20 -23 -18 -10 2 -16 -1 -13 -5 3 -5 -6 -10 -19 -11 l-25 -2 26 26 c15 14 24 29 20 32 -3 3 -12 -4 -21 -16 -8 -12 -22 -22 -30 -22 -8 0 -13 -3 -11 -8 3 -4 -6 -7 -19 -7 -13 0 -24 4 -24 9 0 6 -7 1 -16 -10 -15 -18 -15 -18 -10 0 5 15 4 16 -7 8 -12 -11 -108 -9 -126 2 -5 4 -12 0 -14 -6 -4 -10 -8 -9 -16 2 -9 13 -11 13 -11 -2 0 -10 -7 -18 -16 -18 -8 0 -12 5 -9 10 3 6 2 10 -4 10 -5 0 -13 -5 -16 -10 -4 -6 -20 -9 -37 -6 -16 2 -42 0 -58 -5 -19 -7 -35 -7 -48 0 -15 8 -22 8 -25 -2 -3 -9 -9 -9 -25 0 -11 6 -23 9 -26 5 -11 -10 -136 -10 -136 0 0 5 -4 7 -9 4 -5 -4 -12 0 -14 6 -3 8 -6 6 -6 -4 -1 -22 -19 -24 -27 -3 -4 8 -14 15 -23 14 -10 0 -11 -2 -3 -6 6 -2 12 -9 12 -14 0 -5 -10 -4 -22 3 -13 7 -27 11 -33 9 -29 -9 -144 -7 -142 2 1 6 -31 11 -83 13 -109 3 -175 23 -175 53 -1 21 -11 29 -23 15 -4 -4 -1 -4 7 1 10 5 12 4 7 -4 -13 -21 -27 -1 -14 22 10 20 10 21 -6 8 -16 -13 -17 -12 -11 12 8 31 -3 56 -16 36 -7 -11 -9 -10 -9 4 0 9 -4 17 -8 17 -4 0 -9 12 -10 27 -1 16 -4 38 -7 51 -2 13 0 20 6 17 5 -4 6 -11 3 -17 -4 -7 -2 -8 4 -4 9 5 8 15 -4 38 -9 16 -11 27 -5 24 7 -5 11 3 10 21 -1 19 -3 22 -6 9 -4 -14 -7 -16 -13 -6 -5 7 -4 24 1 37 5 12 5 23 1 23 -4 0 -1 4 7 9 16 11 5 34 -12 24 -7 -3 -3 4 8 18 16 19 16 21 2 10 -17 -13 -17 -12 -12 19 3 18 8 37 11 41 8 14 44 5 45 -11 0 -10 2 -11 6 -2 5 14 -25 67 -34 58 -3 -3 -14 -1 -25 5 -16 8 -24 6 -43 -15 -13 -14 -19 -28 -14 -32 5 -3 7 -9 4 -14 -8 -12 25 -41 37 -34 7 4 8 2 4 -5 -5 -7 -16 -9 -29 -5 -12 4 -30 7 -39 6 -10 0 -18 6 -18 14 0 8 4 13 9 10 5 -3 14 1 21 9 10 12 5 14 -32 12 l-43 -2 2 35 c4 58 12 79 34 91 17 8 20 8 14 -1 -5 -8 -3 -11 6 -8 8 3 13 15 11 28 -3 17 0 21 12 17 19 -7 46 1 46 14 0 17 -56 9 -78 -12z m108 -127 c0 -5 -7 -17 -16 -28 -13 -16 -15 -16 -10 -1 3 11 0 17 -10 17 -8 0 -12 5 -9 10 7 12 45 14 45 2z m-30 -54 c0 -5 -4 -8 -10 -8 -5 0 -10 10 -10 23 0 18 2 19 10 7 5 -8 10 -18 10 -22z m1648 -83 c-4 -16 0 -25 11 -28 9 -3 0 -4 -19 -3 -19 2 -43 -1 -53 -7 -28 -13 -31 -2 -6 22 25 23 44 28 33 9 -4 -8 -3 -10 2 -5 5 5 10 13 10 18 3 17 4 19 15 19 7 0 9 -10 7 -25z m-1241 -21 c-3 -3 -12 -4 -19 -1 -8 3 -5 6 6 6 11 1 17 -2 13 -5z"/> <path d="M1277 958 c2 -5 16 -8 31 -8 15 0 41 -4 59 -9 25 -7 31 -6 27 4 -4 8 -27 15 -64 17 -32 1 -56 0 -53 -4z"/> <path d="M639 951 c-27 -6 -85 -48 -78 -56 3 -2 18 7 33 20 16 14 30 25 32 25 4 0 -2 -25 -9 -37 -13 -20 0 -15 29 12 21 19 30 22 46 14 10 -6 36 -8 56 -6 l37 4 -39 1 c-35 2 -37 4 -25 20 11 14 11 15 -1 5 -17 -15 -44 -17 -35 -3 7 11 -6 11 -46 1z"/> <path d="M1450 930 c-6 -11 -23 -25 -36 -31 -24 -9 -29 -37 -5 -31 6 1 11 -2 11 -8 0 -5 -5 -10 -11 -10 -5 0 -8 -4 -5 -9 3 -5 -1 -14 -9 -21 -8 -7 -16 -9 -16 -4 -1 5 -2 14 -4 19 -1 6 -3 16 -3 23 -1 6 -7 12 -12 12 -6 0 -8 -10 -5 -23 6 -21 3 -24 -24 -24 -17 0 -31 4 -31 9 0 4 7 8 15 8 24 0 17 36 -9 48 -24 11 -36 7 -36 -10 0 -5 10 -6 22 -3 17 6 20 4 15 -10 -4 -9 -7 -19 -7 -22 0 -4 -9 2 -20 12 -11 10 -20 26 -20 36 0 12 -10 21 -27 24 -16 4 -35 10 -44 15 -9 4 -36 6 -60 4 -24 -2 -52 -4 -61 -4 -10 -1 -15 -7 -11 -16 6 -16 42 -38 50 -31 2 3 -5 8 -16 12 -31 10 -17 22 19 17 21 -3 30 -9 26 -18 -3 -8 -1 -14 3 -14 5 0 11 7 15 15 4 11 14 13 38 8 34 -7 72 -39 62 -54 -9 -15 -24 -10 -24 7 0 12 -5 11 -20 -7 -17 -20 -21 -22 -29 -9 -8 11 -13 12 -22 3 -8 -8 -6 -13 11 -18 12 -4 25 -4 28 0 4 4 13 -10 20 -32 l12 -38 -4 37 c-4 33 -2 36 17 32 11 -2 24 2 28 8 5 7 11 9 14 6 4 -4 3 -13 -1 -20 -15 -24 -11 -59 7 -68 28 -16 31 -12 10 12 -16 16 -18 25 -10 35 15 18 33 17 25 -2 -3 -8 0 -15 5 -15 7 0 9 10 6 23 -5 20 -5 20 7 5 9 -12 16 -14 23 -7 8 8 13 7 17 0 4 -6 0 -11 -8 -11 -9 0 -16 -4 -16 -10 0 -5 -3 -9 -7 -9 -5 1 -15 1 -23 0 -13 -1 -13 -2 0 -11 9 -5 19 -5 27 2 7 5 20 8 28 4 10 -4 15 1 15 14 0 11 7 20 15 20 8 0 12 6 9 14 -3 8 -1 17 5 21 6 3 11 17 11 31 0 34 21 39 69 14 39 -20 41 -22 25 -38 -17 -16 -17 -17 1 -21 17 -3 16 -5 -6 -22 l-24 -18 24 6 c18 5 22 3 16 -7 -6 -10 -4 -12 10 -6 16 6 16 4 4 -11 -9 -11 -10 -14 -1 -9 18 11 15 -19 -4 -35 -13 -10 -17 -10 -25 2 -5 9 -9 10 -9 2 0 -18 20 -27 33 -14 18 18 31 13 16 -6 -7 -10 -1 -7 14 6 15 14 27 29 26 35 0 6 -3 5 -6 -1 -6 -17 -20 -16 -20 1 0 8 -7 29 -15 47 -13 28 -16 67 -9 100 1 8 51 0 79 -13 22 -11 31 -38 12 -38 -5 0 -10 7 -10 15 0 20 -6 19 -30 -5 -22 -22 -25 -36 -10 -45 15 -9 51 5 44 17 -8 13 13 2 39 -20 16 -14 17 -13 17 11 0 15 -4 27 -10 27 -5 0 -6 -7 -3 -17 4 -11 3 -14 -5 -9 -15 9 -16 43 -2 51 6 3 10 1 10 -5 0 -6 7 -10 16 -8 10 2 19 -3 21 -9 3 -7 0 -13 -6 -13 -6 0 -11 -5 -11 -11 0 -5 5 -7 12 -3 7 4 8 3 4 -4 -4 -7 -2 -20 3 -29 9 -16 10 -14 11 9 0 15 5 30 10 33 20 12 9 30 -30 48 -22 10 -48 17 -57 15 -10 -2 -22 2 -28 8 -5 7 -28 14 -50 16 -33 2 -40 -1 -39 -15 2 -19 -21 -23 -32 -5 -4 7 -3 8 4 4 7 -4 12 -2 12 3 0 6 -16 11 -36 11 -32 0 -35 2 -24 15 7 9 10 18 7 21 -3 3 -11 -4 -17 -16z m170 -99 c0 -5 -7 -11 -14 -14 -10 -4 -13 -1 -9 9 6 15 23 19 23 5z"/> <path d="M906 918 c4 -6 3 -8 -3 -5 -14 9 -73 -12 -73 -25 0 -7 -4 -7 -12 0 -15 11 -44 9 -104 -7 -23 -6 -49 -9 -57 -5 -8 3 -17 2 -20 -3 -3 -5 10 -13 29 -19 27 -9 34 -8 34 2 0 8 5 14 11 14 5 0 7 -4 4 -10 -3 -5 0 -10 7 -10 7 -1 2 -7 -11 -14 -14 -8 -19 -16 -13 -20 6 -3 13 0 15 6 4 9 6 7 6 -3 1 -9 -8 -28 -19 -42 -23 -29 -19 -33 28 -35 19 -2 32 2 32 9 0 7 8 5 20 -6 20 -18 20 -17 20 9 0 17 4 25 11 21 6 -4 8 -14 4 -23 -5 -12 -1 -12 17 3 13 11 25 22 28 24 3 2 -5 0 -17 -3 -16 -5 -23 -3 -23 6 0 8 12 13 31 12 35 -1 82 36 93 73 4 11 14 27 24 35 15 11 15 11 6 -2 -15 -20 -24 -60 -14 -60 5 0 10 5 12 12 2 6 13 12 25 13 23 1 59 32 49 42 -3 4 -6 3 -6 -2 0 -4 -9 0 -20 10 -20 18 -20 17 -20 -8 0 -14 -5 -29 -12 -33 -8 -5 -9 -2 -5 9 3 10 4 24 1 32 -5 12 -14 9 -44 -15 -21 -17 -48 -30 -61 -30 l-23 0 22 16 c12 8 27 12 32 9 6 -3 10 3 10 14 0 12 -5 21 -11 21 -5 0 -7 -5 -3 -12z m-129 -71 c7 3 10 10 7 16 -3 8 8 12 31 13 32 1 35 -1 35 -29 0 -24 2 -27 14 -18 10 8 16 9 21 1 3 -5 -6 -15 -20 -20 -28 -11 -49 -5 -40 11 4 5 1 9 -4 9 -6 0 -11 -9 -11 -21 0 -12 -4 -17 -11 -14 -6 4 -8 13 -5 21 3 8 1 14 -5 14 -7 0 -9 -13 -5 -35 4 -22 3 -35 -4 -35 -5 0 -10 6 -10 14 0 22 -19 30 -35 16 -17 -14 -20 -30 -5 -30 6 0 10 7 10 15 0 8 5 15 10 15 16 0 11 -27 -6 -34 -32 -12 -44 12 -19 38 10 10 14 27 10 53 -4 37 -4 38 13 17 10 -11 23 -19 29 -17z m153 17 c0 -3 -7 -12 -15 -20 -12 -13 -15 -13 -15 -1 0 7 3 17 7 20 8 8 23 9 23 1z"/> <path d="M805 850 c-3 -5 1 -10 9 -10 8 0 18 5 21 10 3 6 -1 10 -9 10 -8 0 -18 -4 -21 -10z"/> <path d="M750 819 c0 -5 5 -7 10 -4 6 3 10 8 10 11 0 2 -4 4 -10 4 -5 0 -10 -5 -10 -11z"/> <path d="M2183 906 c-17 -12 -28 -27 -25 -35 3 -9 0 -11 -7 -6 -15 9 -32 -12 -71 -87 -17 -32 -33 -58 -36 -58 -7 0 -126 62 -134 70 -3 3 -17 11 -32 19 -16 8 -28 20 -28 28 0 7 -6 13 -14 13 -7 0 -28 3 -45 6 -27 6 -30 4 -25 -11 4 -10 1 -20 -6 -25 -11 -7 -11 -14 -2 -34 7 -16 8 -26 2 -26 -6 0 -10 -10 -9 -22 l0 -23 11 23 c7 13 17 21 25 17 9 -3 6 6 -7 25 -12 17 -17 30 -11 30 6 0 11 7 11 15 0 8 5 15 11 15 6 0 9 -12 7 -27 -2 -16 2 -28 11 -31 8 -3 11 0 7 6 -3 6 -2 13 4 17 6 4 8 11 5 16 -4 5 -2 9 3 9 11 0 33 -47 24 -53 -4 -2 -2 -2 5 -1 7 2 15 -1 18 -6 3 -5 12 -7 19 -4 19 7 29 -11 13 -25 -8 -6 -30 -12 -50 -13 -21 -2 -37 -8 -37 -15 0 -7 6 -11 13 -9 39 13 67 15 67 7 0 -5 -9 -12 -20 -14 -17 -4 -16 -4 2 -3 15 1 23 7 22 19 -2 24 11 21 29 -5 l14 -23 0 29 c0 16 -3 23 -7 16 -5 -9 -9 -9 -14 -1 -13 20 4 31 30 19 15 -7 20 -14 13 -18 -7 -5 -5 -9 5 -13 9 -4 16 -2 16 4 0 6 9 5 23 -3 12 -7 25 -11 30 -10 4 1 7 -3 7 -8 0 -6 5 -10 10 -10 6 0 10 8 10 18 0 13 2 14 9 3 15 -23 27 5 35 78 4 34 27 61 54 61 15 0 7 -42 -9 -48 -22 -9 -1 -42 35 -55 19 -7 19 -7 3 11 -22 24 -21 35 2 56 11 10 17 24 14 32 -3 8 0 14 6 14 6 0 8 7 5 15 -4 8 -10 12 -15 9 -5 -3 -7 -9 -4 -14 10 -16 -13 -20 -25 -5 -10 12 -9 15 4 15 9 0 16 4 16 9 0 5 7 11 15 15 8 3 14 2 14 -2 -3 -21 3 -24 16 -6 8 10 15 21 15 25 0 13 -50 3 -77 -15z m-90 -161 c-8 -22 -22 -18 -16 5 3 11 9 17 14 15 4 -3 6 -12 2 -20z"/> <path d="M2040 906 c0 -10 60 -34 65 -26 3 4 -9 13 -27 19 -35 12 -38 13 -38 7z"/> <path d="M1166 875 c-3 -8 -1 -15 4 -15 6 0 10 7 10 15 0 8 -2 15 -4 15 -2 0 -6 -7 -10 -15z"/> <path d="M1452 883 c13 -3 15 -9 8 -27 -4 -12 -4 -29 0 -36 5 -8 6 -18 4 -22 -3 -4 2 -5 11 -2 14 6 14 8 -1 25 -15 17 -15 19 -1 19 8 0 18 -6 20 -12 3 -8 6 -6 6 5 1 9 -3 17 -8 17 -5 0 -11 9 -14 20 -3 12 -13 20 -24 19 -16 -1 -16 -2 -1 -6z"/> <path d="M2250 875 c-7 -9 -11 -17 -9 -20 3 -2 10 5 17 15 14 24 10 26 -8 5z"/> <path d="M1060 870 c13 -9 13 -11 0 -19 -18 -12 -6 -26 15 -17 13 4 14 10 5 26 -6 11 -16 20 -23 20 -8 0 -6 -4 3 -10z"/> <path d="M1193 865 c0 -8 4 -12 9 -9 4 3 8 9 8 15 0 5 -4 9 -8 9 -5 0 -9 -7 -9 -15z"/> <path d="M1567 864 c6 -17 8 -17 21 -1 8 10 6 13 -8 14 -13 1 -17 -3 -13 -13z"/> <path d="M1100 859 c0 -5 5 -7 10 -4 6 3 10 8 10 11 0 2 -4 4 -10 4 -5 0 -10 -5 -10 -11z"/> <path d="M2252 839 c-13 -10 -21 -23 -17 -29 3 -5 1 -10 -6 -10 -7 0 -9 -3 -6 -6 4 -4 13 -2 20 4 8 7 17 8 22 4 4 -4 6 3 3 15 -4 16 -2 20 8 16 8 -3 14 0 14 5 0 20 -15 20 -38 1z"/> <path d="M983 840 c2 -8 10 -14 16 -12 11 2 15 -16 12 -48 -2 -12 0 -12 7 -1 7 10 11 10 17 1 9 -15 -16 -41 -41 -41 -33 -1 -58 7 -62 19 -4 12 -32 17 -32 6 0 -13 35 -33 58 -34 12 0 22 -6 22 -12 0 -9 3 -9 8 -2 14 20 43 24 68 8 13 -9 27 -14 31 -10 3 3 1 6 -5 6 -7 0 -8 10 -2 30 5 18 5 30 -1 30 -5 0 -9 -6 -9 -14 0 -8 -7 -17 -16 -20 -14 -5 -15 -4 -4 9 7 8 9 15 5 15 -5 0 0 9 10 20 17 19 19 19 31 2 12 -16 12 -16 11 3 -1 12 5 21 18 23 16 4 17 2 7 -10 -9 -12 -8 -19 4 -34 14 -18 15 -18 5 3 -8 15 -8 22 1 25 8 3 7 11 -2 28 -7 14 -15 20 -17 13 -3 -7 -10 -10 -18 -7 -8 3 -20 -4 -27 -15 -17 -28 -62 -29 -53 -2 3 12 0 21 -10 25 -8 3 -15 0 -15 -7 0 -8 -4 -7 -11 3 -9 13 -10 13 -6 0z"/> <path d="M2048 843 c0 -5 -2 -15 -2 -23 -1 -8 -7 -14 -12 -13 -6 1 -11 -5 -11 -13 0 -35 42 -2 43 34 1 20 -14 32 -18 15z"/> <path d="M2493 835 c-7 -8 -10 -20 -7 -28 3 -8 1 -18 -5 -22 -10 -5 -15 7 -12 28 0 4 -8 7 -19 7 -11 0 -20 5 -20 10 0 6 -7 10 -15 10 -21 0 -19 -13 6 -28 20 -13 20 -14 2 -28 -13 -10 -14 -14 -3 -12 8 2 18 8 23 13 9 12 37 -21 37 -44 0 -8 -7 -23 -17 -33 -20 -22 -1 -24 22 -2 9 10 13 24 9 36 -3 11 -1 32 6 48 15 37 11 64 -7 45z"/> <path d="M2131 803 c0 -25 1 -26 9 -8 12 27 12 35 0 35 -5 0 -10 -12 -9 -27z"/> <path d="M940 805 c7 -8 10 -22 6 -30 -5 -13 -1 -12 19 2 27 20 33 38 10 29 -8 -3 -15 -1 -15 4 0 6 -7 10 -16 10 -13 0 -14 -3 -4 -15z"/> <path d="M1166 802 c-3 -5 -3 -23 -1 -41 3 -24 1 -31 -8 -28 -7 3 -21 -1 -31 -9 -18 -13 -18 -14 8 -24 36 -13 33 -14 41 20 4 16 12 28 18 27 7 -1 12 10 12 28 0 29 -26 48 -39 27z m34 -31 c0 -5 -7 -11 -14 -14 -10 -4 -13 -1 -9 9 6 15 23 19 23 5z"/> <path d="M1243 783 c-1 -24 -1 -25 7 -8 11 26 12 35 2 35 -4 0 -8 -12 -9 -27z"/> <path d="M1423 795 c-10 -11 -10 -17 2 -29 19 -19 19 -30 -1 -22 -8 3 -13 2 -10 -3 3 -5 15 -11 26 -14 17 -4 20 -1 18 24 -1 17 -8 29 -16 29 -12 0 -12 3 -2 15 16 19 -1 19 -17 0z"/> <path d="M1992 801 c-11 -7 -11 -9 2 -14 10 -4 16 -1 16 8 0 17 -1 17 -18 6z"/> <path d="M2373 794 c-8 -21 -1 -25 20 -9 15 11 16 13 2 19 -9 3 -18 -1 -22 -10z"/> <path d="M925 790 c3 -5 8 -10 11 -10 2 0 4 5 4 10 0 6 -5 10 -11 10 -5 0 -7 -4 -4 -10z"/> <path d="M1613 793 c-18 -7 -16 -32 2 -39 8 -4 15 -10 15 -16 0 -5 -4 -7 -9 -4 -5 3 -11 -1 -15 -9 -6 -17 5 -20 20 -5 8 8 15 6 24 -5 14 -17 35 -21 25 -5 -3 6 -1 10 5 10 6 0 8 6 5 13 -4 6 2 2 13 -10 28 -32 54 -31 39 0 -13 28 -81 40 -71 12 4 -11 2 -13 -9 -9 -8 3 -17 15 -20 26 -3 11 -10 17 -16 13 -6 -3 -11 -2 -11 4 0 5 8 15 18 20 17 11 7 13 -15 4z"/> <path d="M1650 786 c0 -2 7 -9 15 -16 13 -11 14 -10 9 4 -5 14 -24 23 -24 12z"/> <path d="M866 761 c-11 -12 -14 -21 -7 -26 6 -3 11 2 11 12 0 15 2 16 10 3 7 -12 9 -10 7 8 -2 27 0 26 -21 3z"/> <path d="M980 769 c0 -5 5 -7 10 -4 6 3 10 8 10 11 0 2 -4 4 -10 4 -5 0 -10 -5 -10 -11z"/> <path d="M2401 754 c9 -11 8 -14 -3 -14 -8 0 -19 5 -26 12 -8 8 -12 8 -12 1 0 -6 7 -13 15 -17 8 -3 15 -13 15 -21 0 -9 5 -13 11 -10 6 4 8 10 5 13 -3 3 1 13 9 22 14 16 14 18 -5 23 -17 4 -19 3 -9 -9z"/> <path d="M1090 749 c0 -5 5 -7 10 -4 6 3 10 1 10 -4 0 -6 4 -11 10 -11 5 0 7 7 4 15 -7 17 -34 21 -34 4z"/> <path d="M1815 750 c4 -6 11 -8 16 -5 14 9 11 15 -7 15 -8 0 -12 -5 -9 -10z"/> <path d="M2142 752 c-10 -3 -9 -8 4 -23 19 -21 39 -25 50 -8 4 7 0 9 -14 5 -15 -5 -21 -2 -24 12 -2 10 -9 17 -16 14z"/> <path d="M2446 753 c-3 -3 -6 -14 -6 -24 0 -13 5 -16 16 -12 11 4 12 8 4 13 -9 6 -9 9 1 12 9 3 9 7 2 11 -5 4 -13 4 -17 0z"/> <path d="M1479 750 c0 -3 -3 -16 -5 -30 -4 -24 -4 -24 13 -8 13 14 15 21 5 30 -7 7 -12 10 -13 8z"/> <path d="M1360 730 c-21 -7 -22 -8 -5 -9 11 -1 31 -8 43 -17 12 -8 30 -13 40 -11 13 4 12 5 -5 6 -12 0 -24 10 -28 21 -7 22 -8 22 -45 10z"/> <path d="M1770 733 c0 -5 12 -21 26 -36 16 -19 30 -27 41 -22 15 5 14 8 -7 19 -16 8 -24 19 -22 32 2 16 1 16 -7 4 -7 -10 -11 -11 -11 -2 0 6 -4 12 -10 12 -5 0 -10 -3 -10 -7z"/> <path d="M656 715 c7 -16 7 -16 44 -19 14 0 31 -5 38 -9 7 -5 19 -4 27 3 9 8 28 10 47 6 18 -4 41 -7 51 -7 9 0 17 -4 17 -9 0 -5 8 -6 17 -3 12 5 15 2 10 -10 -3 -9 -2 -17 3 -17 6 0 10 -5 10 -11 0 -5 -4 -8 -9 -5 -5 4 -6 -4 -3 -16 5 -19 7 -20 10 -5 2 9 8 14 14 10 8 -4 9 0 5 10 -4 10 -10 25 -13 35 -5 14 -4 14 5 2 13 -18 24 -8 15 15 -5 13 -14 15 -35 11 -26 -5 -40 6 -21 17 4 2 0 2 -8 -1 -20 -6 -28 -6 -77 2 -26 4 -43 3 -43 -3 0 -12 -18 -9 -49 8 -14 8 -21 9 -17 2 9 -14 0 -14 -24 -1 -16 8 -18 8 -14 -5z"/> <path d="M1336 698 c3 -4 14 -8 25 -8 11 0 18 4 14 9 -3 6 -14 9 -25 8 -10 -1 -16 -5 -14 -9z"/> <path d="M1621 693 c-7 -8 -11 -16 -8 -19 2 -2 10 2 17 11 17 20 9 27 -9 8z"/> <path d="M1966 688 c3 -5 10 -6 15 -3 13 9 11 12 -6 12 -8 0 -12 -4 -9 -9z"/> <path d="M2000 690 c0 -5 0 -12 0 -15 0 -12 14 -4 16 10 1 8 -2 15 -7 15 -5 0 -9 -4 -9 -10z"/> <path d="M789 670 c-11 -11 -14 -23 -8 -31 7 -11 9 -10 9 5 0 11 5 16 13 13 8 -3 14 3 14 14 2 23 -7 23 -28 -1z"/> <path d="M735 671 c3 -2 -1 -11 -9 -20 -13 -14 -12 -16 10 -17 14 -1 23 0 20 3 -3 3 -1 13 4 22 6 13 4 17 -10 17 -11 0 -17 -2 -15 -5z"/> <path d="M830 674 c0 -5 7 -18 15 -28 8 -11 15 -16 15 -10 0 5 -7 18 -15 28 -8 11 -15 16 -15 10z"/> <path d="M1958 663 c7 -3 16 -2 19 1 4 3 -2 6 -13 5 -11 0 -14 -3 -6 -6z"/> <path d="M1250 640 c0 -8 5 -22 10 -30 9 -13 10 -13 10 0 0 8 -5 22 -10 30 -9 13 -10 13 -10 0z"/> <path d="M2294 635 c11 -8 16 -15 11 -15 -14 0 14 -25 28 -25 13 0 13 -15 1 -52 -5 -17 -2 -23 10 -23 9 0 16 5 16 11 0 5 -4 7 -10 4 -5 -3 -10 -1 -10 4 0 6 5 11 10 11 19 0 11 52 -9 57 -13 3 -17 11 -14 24 4 15 0 19 -23 19 -28 -1 -28 -1 -10 -15z"/> <path d="M831 624 c0 -11 3 -14 6 -6 3 7 2 16 -1 19 -3 4 -6 -2 -5 -13z"/> <path d="M1210 629 c0 -6 -7 -9 -15 -5 -8 3 -15 0 -15 -6 0 -7 -6 -6 -16 3 -13 10 -17 10 -25 -2 -15 -24 -10 -34 7 -13 15 19 15 18 9 -3 l-6 -21 45 21 c24 12 42 25 39 30 -7 11 -23 8 -23 -4z"/> <path d="M1290 632 c0 -4 9 -8 20 -8 11 0 20 4 20 8 0 4 -9 8 -20 8 -11 0 -20 -4 -20 -8z"/> <path d="M1430 618 c0 -12 3 -17 8 -12 4 5 11 12 15 15 5 3 2 9 -7 12 -12 5 -16 0 -16 -15z"/> <path d="M2216 624 c-20 -19 -20 -25 -1 -18 8 4 15 11 15 18 0 6 5 4 10 -4 8 -12 11 -13 19 -1 7 11 9 11 13 0 3 -8 9 -11 13 -6 11 10 2 17 -28 22 -15 3 -32 -1 -41 -11z"/> <path d="M1480 620 c-8 -5 -12 -11 -9 -14 3 -3 14 1 25 9 21 16 8 20 -16 5z"/> <path d="M1527 623 c-4 -3 -7 -11 -7 -17 0 -6 5 -5 12 2 6 6 9 14 7 17 -3 3 -9 2 -12 -2z"/> <path d="M1593 623 c-18 -7 -16 -20 2 -20 8 0 15 6 15 14 0 7 -1 13 -2 12 -2 0 -9 -3 -15 -6z"/> <path d="M1648 623 c6 -2 18 -2 25 0 6 3 1 5 -13 5 -14 0 -19 -2 -12 -5z"/> <path d="M1852 614 c-14 -16 -16 -25 -3 -21 5 1 17 -7 25 -18 8 -11 16 -15 16 -8 0 6 -5 15 -10 18 -8 5 -8 11 0 20 15 18 -11 27 -28 9z"/> <path d="M716 604 c-9 -23 -2 -28 13 -10 7 8 8 17 3 20 -6 3 -13 -1 -16 -10z"/> <path d="M754 576 c-1 -23 1 -35 3 -28 3 6 11 12 19 12 8 0 14 6 14 13 0 8 4 7 10 -3 5 -8 10 -10 10 -4 0 18 -13 24 -27 13 -17 -15 -19 11 -2 28 9 9 7 12 -7 11 -15 -2 -19 -10 -20 -42z"/> <path d="M871 597 c0 -13 3 -16 6 -8 5 11 7 11 14 0 7 -11 9 -11 9 2 0 9 -7 19 -15 23 -11 4 -15 -1 -14 -17z"/> <path d="M1000 610 c0 -5 5 -10 10 -10 6 0 10 5 10 10 0 6 -4 10 -10 10 -5 0 -10 -4 -10 -10z"/> <path d="M1698 613 c7 -3 16 -2 19 1 4 3 -2 6 -13 5 -11 0 -14 -3 -6 -6z"/> <path d="M1780 605 c-17 -10 -20 -14 -9 -15 9 0 22 7 29 15 15 18 12 18 -20 0z"/> <path d="M1961 601 c-6 -10 -7 -22 -3 -26 4 -3 2 -5 -4 -3 -12 3 -14 -1 -14 -24 0 -9 3 -9 9 1 8 12 12 13 26 1 14 -12 15 -10 6 13 -6 15 -8 34 -5 42 9 21 -3 19 -15 -4z"/> <path d="M941 598 c0 -9 -4 -25 -7 -35 -5 -17 -5 -17 6 0 6 10 9 25 7 35 -4 15 -5 15 -6 0z"/> <path d="M1095 600 c-3 -5 -1 -10 4 -10 6 0 11 5 11 10 0 6 -2 10 -4 10 -3 0 -8 -4 -11 -10z"/> <path d="M1320 600 c0 -5 -6 -8 -12 -6 -7 1 -10 1 -5 -1 4 -3 4 -10 0 -16 -3 -7 3 -3 15 7 24 21 27 26 12 26 -5 0 -10 -4 -10 -10z"/> <path d="M1375 600 c-3 -5 -1 -10 4 -10 6 0 11 5 11 10 0 6 -2 10 -4 10 -3 0 -8 -4 -11 -10z"/> <path d="M656 592 c-2 -4 -1 -14 5 -22 7 -12 9 -10 9 8 0 23 -5 28 -14 14z"/> <path d="M1997 593 c-4 -3 -7 -13 -7 -22 1 -13 3 -13 11 2 11 19 8 33 -4 20z"/> <path d="M680 580 c0 -5 5 -10 11 -10 5 0 7 5 4 10 -3 6 -8 10 -11 10 -2 0 -4 -4 -4 -10z"/> <path d="M820 575 c0 -8 2 -15 4 -15 2 0 6 7 10 15 3 8 1 15 -4 15 -6 0 -10 -7 -10 -15z"/> <path d="M986 582 c-3 -6 -7 -22 -8 -36 -1 -14 -6 -26 -11 -26 -4 0 -5 -5 -2 -11 4 -5 -6 -22 -22 -36 -18 -18 -22 -24 -10 -20 10 4 23 7 28 7 5 0 9 6 9 14 0 29 19 26 27 -5 8 -29 10 -30 23 -13 9 11 10 15 3 10 -7 -4 -13 -2 -13 3 0 6 6 11 13 11 6 1 0 7 -14 15 -25 13 -26 18 -19 52 9 38 7 53 -4 35z"/> <path d="M1071 574 c0 -11 3 -14 6 -6 3 7 2 16 -1 19 -3 4 -6 -2 -5 -13z"/> <path d="M1218 578 c11 -14 8 -22 -24 -58 -20 -22 -39 -38 -42 -35 -3 3 0 11 6 17 7 7 12 19 12 28 -1 12 -4 11 -16 -5 -8 -11 -20 -19 -26 -17 -6 2 -8 -4 -4 -14 5 -14 4 -15 -9 -4 -12 10 -13 16 -4 27 7 7 9 16 5 20 -3 4 -13 -2 -20 -13 -9 -12 -11 -21 -4 -25 6 -4 6 -9 2 -11 -5 -3 -3 -3 4 -2 6 2 12 -1 12 -6 0 -19 47 -10 73 14 29 27 46 22 20 -6 -12 -14 -14 -21 -5 -30 14 -14 21 -8 28 23 13 58 12 88 -4 101 -15 12 -15 11 -4 -4z m2 -102 c0 -3 -4 -8 -10 -11 -5 -3 -10 -1 -10 4 0 6 5 11 10 11 6 0 10 -2 10 -4z"/> <path d="M1536 576 c3 -8 -5 -21 -17 -30 -13 -8 -19 -19 -15 -23 4 -4 12 0 17 10 6 9 15 17 20 17 6 0 7 -4 4 -10 -3 -5 -2 -10 3 -10 14 0 9 49 -5 54 -7 3 -10 -1 -7 -8z"/> <path d="M1702 569 c7 -12 19 -31 25 -43 12 -20 13 -20 13 7 0 15 5 27 10 27 6 0 10 5 10 11 0 8 -4 8 -15 -1 -11 -10 -18 -9 -30 4 -23 22 -28 20 -13 -5z"/> <path d="M1800 581 c0 -7 -4 -9 -10 -6 -5 3 -10 1 -10 -4 0 -6 4 -11 9 -11 13 0 25 20 17 27 -3 4 -6 1 -6 -6z"/> <path d="M1911 581 c-8 -5 -10 -14 -6 -21 6 -9 10 -8 17 4 12 21 7 28 -11 17z"/> <path d="M2265 569 c-4 -11 -4 -23 -1 -26 3 -4 6 1 6 10 0 8 5 17 12 19 9 3 9 6 1 11 -7 4 -14 -1 -18 -14z"/> <path d="M1128 554 c2 -13 8 -24 13 -24 12 0 6 39 -7 44 -7 3 -9 -5 -6 -20z"/> <path d="M1472 564 c-7 -8 -17 -12 -23 -9 -5 4 -9 1 -9 -4 0 -6 8 -11 17 -11 9 0 13 -3 9 -7 -4 -4 -19 -7 -33 -8 -14 0 -28 -6 -31 -13 -3 -11 0 -12 18 -2 12 6 23 10 24 8 1 -2 8 -11 15 -21 12 -15 12 -17 -5 -11 -16 5 -16 4 -4 -5 22 -16 30 -13 30 10 0 11 -4 17 -10 14 -5 -3 -10 -1 -10 4 0 6 5 11 10 11 6 0 10 6 10 14 0 8 4 16 10 18 5 2 6 8 2 14 -5 9 -11 8 -20 -2z"/> <path d="M2296 565 c-3 -8 -1 -15 4 -15 6 0 10 7 10 15 0 8 -2 15 -4 15 -2 0 -6 -7 -10 -15z"/> <path d="M721 548 c-1 -16 4 -28 9 -28 12 0 12 8 0 35 -8 18 -9 17 -9 -7z"/> <path d="M837 552 c-16 -18 -14 -32 6 -32 5 0 7 7 4 15 -4 8 -2 17 3 20 4 3 11 -1 13 -7 3 -8 6 -6 6 5 1 22 -12 22 -32 -1z"/> <path d="M955 559 c-4 -6 -5 -12 -2 -15 2 -3 7 2 10 11 7 17 1 20 -8 4z"/> <path d="M1021 539 c-13 -17 -19 -29 -12 -25 6 4 11 2 11 -3 0 -16 17 -13 23 3 4 10 1 13 -9 9 -14 -5 -14 -3 -2 16 l13 22 12 -28 c7 -15 12 -21 13 -12 0 8 -6 23 -13 33 -11 16 -14 14 -36 -15z"/> <path d="M1095 560 c-3 -5 -1 -10 4 -10 6 0 11 5 11 10 0 6 -2 10 -4 10 -3 0 -8 -4 -11 -10z"/> <path d="M1607 550 c4 -16 3 -21 -5 -16 -7 4 -12 2 -12 -3 0 -17 20 -13 27 5 3 8 1 20 -5 26 -8 8 -9 4 -5 -12z"/> <path d="M1640 559 c0 -5 5 -7 10 -4 6 3 10 8 10 11 0 2 -4 4 -10 4 -5 0 -10 -5 -10 -11z"/> <path d="M2219 557 c6 -8 8 -17 4 -20 -3 -4 1 -7 10 -7 20 0 22 11 5 28 -16 16 -33 15 -19 -1z"/> <path d="M896 545 c-11 -8 -13 -15 -7 -20 6 -3 11 -1 11 4 0 6 5 11 11 11 6 0 8 -9 4 -20 -4 -12 -2 -20 5 -20 6 0 9 4 5 9 -3 5 -1 12 5 16 5 3 10 -1 10 -9 0 -23 -37 -40 -43 -21 -4 12 -5 11 -3 -1 2 -27 36 -26 48 2 10 20 8 27 -8 43 -17 15 -23 16 -38 6z"/> <path d="M1807 540 c-3 -10 0 -21 5 -22 6 -2 4 -11 -6 -20 -10 -10 -12 -19 -6 -23 5 -3 10 -1 10 5 0 6 4 9 9 5 15 -9 24 15 11 30 -7 8 -10 22 -6 30 3 8 2 15 -3 15 -5 0 -11 -9 -14 -20z"/> <path d="M1855 530 c0 -16 5 -28 10 -27 6 2 10 14 10 27 0 13 -4 25 -10 27 -5 2 -10 -10 -10 -27z"/> <path d="M2191 544 c0 -11 3 -14 6 -6 3 7 2 16 -1 19 -3 4 -6 -2 -5 -13z"/> <path d="M1268 533 c-25 -29 -30 -59 -13 -73 9 -7 15 -9 13 -3 -2 6 0 10 3 10 3 -1 14 4 23 12 15 13 17 12 12 -12 -3 -15 0 -27 6 -27 5 0 8 7 5 15 -7 17 12 32 22 18 9 -13 51 -11 51 3 0 7 -8 10 -19 7 -26 -7 -36 25 -15 48 16 18 16 19 -11 19 -22 0 -25 -3 -16 -14 9 -11 9 -16 0 -21 -8 -6 -7 -10 2 -16 11 -7 10 -9 -3 -9 -9 0 -20 9 -23 20 -4 11 -11 18 -16 15 -5 -4 -9 -2 -9 4 0 5 6 12 13 14 7 3 7 6 1 6 -6 1 -18 -7 -26 -16z m32 -39 c0 -3 -6 -4 -12 -1 -7 2 -18 -3 -25 -12 -9 -13 -10 -11 -6 11 4 23 8 26 24 17 11 -5 19 -12 19 -15z"/> <path d="M1761 543 c-1 -17 16 -25 25 -12 4 7 3 9 -4 5 -5 -3 -13 0 -15 6 -4 9 -6 10 -6 1z"/> <path d="M2033 535 c-8 -9 -9 -16 -3 -20 6 -4 8 -11 5 -16 -4 -5 -1 -9 5 -9 7 0 10 7 7 15 -4 8 -2 17 3 20 12 7 13 25 3 25 -5 -1 -14 -7 -20 -15z"/> <path d="M1636 525 c-9 -26 -7 -32 5 -12 6 10 9 21 6 23 -2 3 -7 -2 -11 -11z"/> <path d="M1670 525 c-7 -9 -11 -17 -9 -20 3 -2 10 5 17 15 14 24 10 26 -8 5z"/> <path d="M1913 524 c-17 -17 -16 -24 1 -24 15 0 30 27 18 34 -4 2 -13 -2 -19 -10z"/> <path d="M1996 532 c-3 -6 -13 -9 -20 -6 -7 3 -17 -3 -20 -13 -6 -14 -5 -15 5 -6 9 9 18 9 31 2 24 -13 28 -10 18 15 -4 13 -9 16 -14 8z"/> <path d="M2390 516 c0 -22 3 -27 11 -19 8 8 8 16 0 30 -9 16 -10 14 -11 -11z"/> <path d="M750 520 c0 -9 34 -14 43 -7 2 1 11 -4 20 -12 11 -8 17 -9 17 -2 0 6 -12 13 -27 17 -16 3 -34 7 -40 10 -7 2 -13 -1 -13 -6z"/> <path d="M1370 520 c0 -5 5 -10 10 -10 6 0 10 5 10 10 0 6 -4 10 -10 10 -5 0 -10 -4 -10 -10z"/> <path d="M1565 519 c-4 -6 -5 -12 -2 -15 2 -3 7 2 10 11 7 17 1 20 -8 4z"/> <path d="M851 506 c-10 -12 -8 -13 8 -9 12 3 21 9 21 14 0 14 -16 11 -29 -5z"/> <path d="M1541 504 c0 -11 3 -14 6 -6 3 7 2 16 -1 19 -3 4 -6 -2 -5 -13z"/> <path d="M2090 510 c0 -5 5 -10 10 -10 6 0 10 5 10 10 0 6 -4 10 -10 10 -5 0 -10 -4 -10 -10z"/> <path d="M2251 511 c-10 -7 -7 -9 12 -8 14 1 23 5 20 10 -6 9 -15 9 -32 -2z"/> <path d="M650 503 c0 -7 5 -13 11 -13 6 0 9 -6 6 -14 -7 -17 47 -16 65 2 11 11 8 11 -15 3 -25 -10 -31 -8 -48 11 -10 13 -18 17 -19 11z"/> <path d="M1594 501 c4 -5 1 -12 -4 -14 -6 -3 -5 -4 2 -3 15 3 23 26 8 26 -6 0 -9 -4 -6 -9z"/> <path d="M1507 493 c-4 -3 -7 -11 -7 -17 0 -6 5 -4 10 4 8 13 10 13 10 -2 0 -16 24 -19 35 -5 3 4 2 5 -2 2 -3 -3 -14 2 -23 10 -9 8 -20 12 -23 8z"/> <path d="M1973 493 c-7 -3 -13 -16 -13 -29 0 -15 4 -23 10 -19 6 4 8 10 5 15 -3 4 0 10 6 12 7 2 10 9 8 15 -2 5 -10 8 -16 6z"/> <path d="M2125 490 c3 -5 13 -10 21 -10 8 0 12 5 9 10 -3 6 -13 10 -21 10 -8 0 -12 -4 -9 -10z"/> <path d="M2370 486 c0 -17 26 -40 34 -28 3 5 -4 16 -15 25 -15 13 -19 14 -19 3z"/> <path d="M1048 478 c9 -9 7 -14 -6 -24 -9 -8 -12 -14 -5 -14 13 0 26 17 29 38 1 6 -5 12 -14 12 -12 0 -13 -3 -4 -12z"/> <path d="M1860 479 c0 -5 -4 -8 -9 -5 -5 4 -7 -4 -3 -16 4 -16 7 -18 10 -8 3 8 9 21 15 28 6 8 6 12 -2 12 -6 0 -11 -5 -11 -11z"/> <path d="M1886 463 c-16 -32 -46 -45 -46 -21 0 6 -2 9 -5 6 -9 -9 6 -38 16 -32 6 3 16 0 24 -6 8 -7 15 -9 15 -5 0 4 7 2 15 -5 8 -7 12 -17 9 -22 -4 -6 5 -2 19 7 15 9 31 14 36 11 5 -4 13 -1 17 5 4 8 3 9 -4 5 -7 -4 -12 -2 -12 5 0 8 -5 7 -17 -2 -13 -11 -17 -11 -20 -1 -3 6 -9 10 -14 7 -5 -4 -15 0 -23 7 -12 11 -12 15 1 30 8 9 13 23 11 30 -3 8 -12 0 -22 -19z"/> <path d="M2080 480 c0 -5 5 -10 11 -10 5 0 7 5 4 10 -3 6 -8 10 -11 10 -2 0 -4 -4 -4 -10z"/> <path d="M2278 478 c9 -9 15 -9 24 0 9 9 7 12 -12 12 -19 0 -21 -3 -12 -12z"/> <path d="M828 473 c6 -2 10 -9 6 -14 -3 -5 2 -12 10 -15 20 -8 20 -18 0 -39 -15 -14 -18 -14 -35 6 -11 12 -21 20 -24 17 -3 -2 4 -14 15 -26 17 -18 24 -20 45 -10 14 6 25 20 25 30 0 11 4 17 9 14 5 -3 14 1 21 8 9 12 6 14 -19 11 -22 -3 -31 0 -31 10 0 8 -8 15 -17 14 -11 0 -13 -3 -5 -6z"/> <path d="M1739 468 c16 -21 37 -23 47 -6 5 8 2 9 -11 5 -9 -4 -25 -2 -34 5 -14 12 -14 11 -2 -4z"/> <path d="M2110 473 c0 -15 19 -37 26 -31 3 4 -1 14 -10 23 -9 9 -16 13 -16 8z"/> <path d="M1412 456 c-7 -6 -25 -23 -39 -38 -14 -15 -29 -25 -33 -23 -4 3 -14 -3 -21 -12 -12 -15 -12 -16 4 -10 11 4 17 2 17 -8 0 -7 5 -17 12 -21 8 -5 9 -2 5 10 -8 20 19 66 40 66 11 0 12 -4 2 -22 -11 -21 -11 -22 5 -9 9 8 15 19 13 25 -3 6 0 19 5 29 12 23 7 28 -10 13z"/> <path d="M1639 468 c-4 -13 -3 -68 1 -68 3 0 12 5 20 10 11 7 11 10 2 10 -7 0 -11 4 -7 9 3 5 0 13 -6 17 -8 4 -7 9 2 15 10 6 11 9 2 9 -7 0 -13 -1 -14 -2z"/> <path d="M2040 460 c0 -5 5 -10 11 -10 5 0 7 5 4 10 -3 6 -8 10 -11 10 -2 0 -4 -4 -4 -10z"/> <path d="M2430 460 c0 -5 5 -10 11 -10 5 0 7 5 4 10 -3 6 -8 10 -11 10 -2 0 -4 -4 -4 -10z"/> <path d="M1088 453 c7 -3 16 -2 19 1 4 3 -2 6 -13 5 -11 0 -14 -3 -6 -6z"/> <path d="M1136 449 c4 -8 30 -6 38 2 3 3 -5 5 -19 5 -13 0 -22 -3 -19 -7z"/> <path d="M1550 440 c-6 -11 -9 -20 -8 -20 2 0 11 9 21 20 9 11 13 20 7 20 -5 0 -14 -9 -20 -20z"/> <path d="M1679 443 c-13 -16 -12 -17 4 -4 16 13 21 21 13 21 -2 0 -10 -8 -17 -17z"/> <path d="M2084 453 c4 -7 -2 -17 -14 -23 -11 -6 -20 -16 -20 -23 0 -9 2 -9 8 1 5 7 15 10 24 7 10 -4 14 0 13 14 -1 11 -5 24 -10 28 -4 5 -5 3 -1 -4z"/> <path d="M2181 444 c0 -11 3 -14 6 -6 3 7 2 16 -1 19 -3 4 -6 -2 -5 -13z"/> <path d="M2300 452 c0 -7 -4 -10 -10 -7 -5 3 -10 1 -10 -5 0 -6 13 -8 33 -5 30 6 31 5 12 -9 -17 -13 -17 -15 -4 -16 20 0 30 22 19 39 -6 10 -9 10 -15 1 -6 -9 -10 -9 -16 1 -7 11 -9 11 -9 1z"/> <path d="M733 417 c0 -30 11 -46 30 -47 4 0 7 5 7 11 0 5 -4 8 -9 4 -15 -9 -19 29 -5 45 11 13 10 16 -5 17 -13 1 -17 -6 -18 -30z"/> <path d="M966 437 c3 -10 9 -15 12 -12 3 3 0 11 -7 18 -10 9 -11 8 -5 -6z"/> <path d="M1235 440 c3 -5 8 -10 11 -10 2 0 4 5 4 10 0 6 -5 10 -11 10 -5 0 -7 -4 -4 -10z"/> <path d="M1318 428 c-10 -10 -18 -23 -18 -29 0 -7 10 0 21 15 25 31 22 41 -3 14z"/> <path d="M1721 432 c-8 -15 -5 -18 12 -19 12 0 17 1 10 4 -7 2 -9 11 -6 19 8 20 -4 17 -16 -4z"/> <path d="M1941 434 c0 -11 3 -14 6 -6 3 7 2 16 -1 19 -3 4 -6 -2 -5 -13z"/> <path d="M2250 434 c0 -8 5 -12 10 -9 6 4 8 11 5 16 -9 14 -15 11 -15 -7z"/> <path d="M911 428 c-1 -10 3 -18 8 -18 5 0 12 -8 14 -17 3 -10 5 -2 6 17 0 23 -2 30 -8 21 -7 -11 -9 -11 -14 0 -4 10 -6 9 -6 -3z"/> <path d="M1120 430 c0 -6 7 -10 15 -10 8 0 15 2 15 4 0 2 -7 6 -15 10 -8 3 -15 1 -15 -4z"/> <path d="M1184 425 c-4 -8 -10 -13 -14 -10 -4 3 -7 -3 -6 -12 0 -9 -5 -18 -11 -20 -7 -3 -13 3 -13 13 0 15 -2 16 -12 5 -10 -11 -10 -14 0 -18 18 -7 14 -19 -7 -20 -15 -1 -18 3 -14 15 3 9 3 14 -1 11 -4 -4 -8 -16 -11 -28 -6 -32 19 -26 64 14 21 19 44 35 50 35 16 0 13 17 -4 24 -9 3 -18 -1 -21 -9z"/> <path d="M1447 433 c-10 -9 -9 -33 1 -33 4 0 8 9 8 20 0 23 0 22 -9 13z"/> <path d="M1497 433 c-11 -10 -8 -20 7 -26 10 -4 12 0 9 14 -6 21 -7 22 -16 12z"/> <path d="M1580 425 c0 -8 2 -15 4 -15 2 0 6 7 10 15 3 8 1 15 -4 15 -6 0 -10 -7 -10 -15z"/> <path d="M1615 430 c-3 -5 -1 -10 4 -10 6 0 11 5 11 10 0 6 -2 10 -4 10 -3 0 -8 -4 -11 -10z"/> <path d="M2140 430 c-13 -8 -12 -10 3 -10 9 0 17 5 17 10 0 12 -1 12 -20 0z"/> <path d="M1010 421 c0 -6 -3 -10 -7 -9 -5 2 -19 -5 -31 -14 -20 -14 -22 -19 -13 -37 7 -12 19 -20 29 -20 16 1 16 2 0 6 -29 7 -21 38 14 54 20 10 28 18 20 23 -7 4 -12 2 -12 -3z"/> <path d="M1080 411 c-6 -12 -16 -18 -22 -15 -7 5 -8 2 -3 -5 6 -10 13 -8 28 8 12 11 18 23 15 27 -4 3 -11 -4 -18 -15z"/> <path d="M1260 426 c0 -2 7 -6 15 -10 8 -3 15 -1 15 4 0 6 -7 10 -15 10 -8 0 -15 -2 -15 -4z"/> <path d="M1770 414 c0 -8 5 -12 10 -9 6 4 8 11 5 16 -9 14 -15 11 -15 -7z"/> <path d="M1996 419 c3 -5 12 -9 21 -9 19 0 9 13 -12 16 -8 1 -13 -2 -9 -7z"/> <path d="M1230 405 c-7 -8 -17 -12 -24 -8 -7 4 -7 1 1 -7 9 -10 15 -11 27 -1 11 9 17 8 29 -4 9 -8 21 -15 27 -15 12 0 2 12 -31 38 -13 10 -19 9 -29 -3z"/> <path d="M2180 414 c-9 -3 -22 -15 -29 -27 -13 -19 -12 -21 1 -10 8 7 17 10 21 7 3 -3 10 4 17 15 6 12 9 20 8 20 -2 -1 -10 -3 -18 -5z"/> <path d="M2265 410 c-3 -6 1 -7 9 -4 18 7 21 14 7 14 -6 0 -13 -4 -16 -10z"/> <path d="M2375 410 c3 -5 0 -10 -8 -10 -18 0 -42 -28 -33 -38 4 -4 12 1 17 11 6 9 17 17 24 17 8 0 15 7 15 15 0 8 -5 15 -11 15 -5 0 -7 -4 -4 -10z"/> <path d="M1537 396 c-4 -10 0 -13 14 -11 16 3 19 0 13 -17 -4 -14 -2 -18 5 -14 17 11 13 34 -8 45 -14 8 -20 7 -24 -3z"/> <path d="M1813 395 c0 -8 4 -12 9 -9 5 3 6 10 3 15 -9 13 -12 11 -12 -6z"/> <path d="M1600 390 c0 -5 5 -10 10 -10 6 0 10 5 10 10 0 6 -4 10 -10 10 -5 0 -10 -4 -10 -10z"/> <path d="M1020 379 c0 -5 5 -7 10 -4 6 3 10 8 10 11 0 2 -4 4 -10 4 -5 0 -10 -5 -10 -11z"/> <path d="M1404 369 c-19 -22 -19 -22 4 -10 12 6 22 16 22 21 0 15 -5 12 -26 -11z"/> <path d="M1511 374 c0 -11 3 -14 6 -6 3 7 2 16 -1 19 -3 4 -6 -2 -5 -13z"/> <path d="M1870 381 c0 -6 4 -13 10 -16 6 -3 7 1 4 9 -7 18 -14 21 -14 7z"/> <path d="M1445 370 c-3 -5 -2 -10 4 -10 5 0 13 5 16 10 3 6 2 10 -4 10 -5 0 -13 -4 -16 -10z"/> <path d="M2060 355 c-13 -14 -20 -25 -17 -25 10 0 49 41 45 46 -3 2 -15 -7 -28 -21z"/> <path d="M2107 374 c-4 -4 -7 -14 -7 -23 0 -11 3 -12 11 -4 6 6 10 16 7 23 -2 6 -7 8 -11 4z"/> <path d="M2268 373 c7 -3 16 -2 19 1 4 3 -2 6 -13 5 -11 0 -14 -3 -6 -6z"/> <path d="M797 350 c-3 -11 -1 -22 4 -25 10 -7 53 34 45 43 -4 3 -13 -3 -22 -14 -13 -16 -15 -17 -10 -1 3 9 2 17 -3 17 -5 0 -11 -9 -14 -20z"/> <path d="M2177 363 c-11 -11 -8 -35 3 -28 6 4 17 2 24 -4 9 -8 13 -7 13 4 0 7 -5 13 -11 12 -6 -1 -10 4 -8 11 2 13 -10 16 -21 5z"/> <path d="M746 352 c-3 -6 -1 -14 5 -17 15 -10 25 3 12 16 -7 7 -13 7 -17 1z"/> <path d="M1055 350 c-4 -6 -11 -8 -16 -5 -5 4 -9 1 -9 -5 0 -6 -4 -9 -9 -6 -5 3 -11 -1 -15 -9 -3 -9 -12 -12 -23 -8 -10 3 -15 3 -11 -2 4 -4 21 -9 37 -11 25 -3 29 0 24 13 -5 13 -2 15 15 11 17 -5 22 -2 22 13 0 21 -6 24 -15 9z"/> <path d="M1160 350 c-9 -6 -10 -10 -3 -10 6 0 15 5 18 10 8 12 4 12 -15 0z"/> <path d="M1206 345 c4 -8 2 -15 -3 -15 -5 0 -10 -7 -10 -15 0 -22 5 -19 22 15 14 26 14 30 1 30 -10 0 -13 -6 -10 -15z"/> <path d="M851 329 c-13 -11 -19 -19 -13 -19 6 0 17 7 26 15 18 18 26 19 22 3 -1 -7 -1 -9 2 -5 2 4 9 3 16 -2 13 -11 56 -4 56 10 0 11 -23 7 -31 -5 -4 -5 -12 -5 -19 -1 -9 6 -10 9 0 15 7 5 3 8 -12 8 -13 0 -34 -9 -47 -19z"/> <path d="M1240 342 c0 -5 7 -13 16 -16 10 -4 14 -1 12 6 -5 15 -28 23 -28 10z"/> <path d="M1413 338 c-12 -15 -24 -48 -18 -48 2 0 10 14 19 30 15 32 15 38 -1 18z"/> <path d="M1480 339 c0 -5 5 -7 10 -4 6 3 10 8 10 11 0 2 -4 4 -10 4 -5 0 -10 -5 -10 -11z"/> <path d="M1330 330 c0 -5 5 -10 11 -10 5 0 7 5 4 10 -3 6 -8 10 -11 10 -2 0 -4 -4 -4 -10z"/> <path d="M1140 321 c-18 -5 -21 -9 -11 -15 8 -5 19 -2 29 8 9 9 14 16 12 15 -3 -1 -16 -4 -30 -8z"/> <path d="M1280 311 c0 -7 -4 -9 -10 -6 -5 3 -10 -1 -10 -9 0 -9 4 -16 9 -16 11 0 24 31 16 38 -3 3 -5 0 -5 -7z"/> <path d="M1426 308 c3 -5 10 -6 15 -3 13 9 11 12 -6 12 -8 0 -12 -4 -9 -9z"/> <path d="M1576 305 c-17 -13 -18 -15 -2 -21 20 -8 29 -1 24 20 -3 13 -6 13 -22 1z"/> <path d="M1075 300 c3 -5 8 -10 11 -10 2 0 4 5 4 10 0 6 -5 10 -11 10 -5 0 -7 -4 -4 -10z"/> <path d="M1325 300 c-3 -5 -1 -10 4 -10 6 0 11 5 11 10 0 6 -2 10 -4 10 -3 0 -8 -4 -11 -10z"/> <path d="M1505 301 c-3 -5 -2 -12 3 -15 5 -3 9 1 9 9 0 17 -3 19 -12 6z"/> </g> </svg> 