 <svg version="1.0" xmlns="http://www.w3.org/2000/svg"  width="300.000000pt" height="300.000000pt" viewBox="0 0 300.000000 300.000000"  preserveAspectRatio="xMidYMid meet">  <g transform="translate(0.000000,300.000000) scale(0.100000,-0.100000)" fill="#000000" stroke="none"> <path d="M747 2876 c-60 -16 -113 -59 -152 -121 -27 -43 -30 -57 -30 -129 0 -72 4 -89 33 -148 18 -37 46 -78 63 -92 25 -21 28 -29 19 -45 -14 -26 -13 -137 2 -164 6 -12 31 -44 55 -71 50 -56 51 -66 22 -192 -25 -110 -19 -144 42 -224 44 -60 44 -58 23 -202 -5 -34 -2 -54 8 -70 9 -14 13 -37 11 -59 -4 -29 3 -47 43 -104 83 -123 89 -155 48 -272 -22 -64 -23 -79 -14 -109 7 -21 22 -40 37 -47 18 -8 23 -16 18 -31 -32 -100 -35 -118 -20 -152 8 -19 28 -42 45 -52 18 -10 29 -23 26 -32 -32 -116 -32 -108 -7 -153 22 -41 23 -43 7 -103 -24 -94 -21 -121 18 -160 44 -44 91 -47 128 -6 37 40 41 56 47 187 6 115 7 119 21 90 9 -18 29 -35 52 -43 54 -21 104 6 137 72 24 47 24 51 12 155 -6 62 -8 118 -3 136 8 27 13 30 51 32 70 2 97 38 126 166 16 75 20 82 85 150 84 89 103 127 124 247 10 56 27 112 41 136 14 23 68 79 120 124 53 45 109 100 125 122 30 42 53 104 44 120 -3 4 -1 8 4 8 5 0 29 14 55 31 53 35 82 77 93 134 5 31 21 53 74 105 111 108 148 212 116 323 -33 114 -171 212 -320 228 -105 12 -181 35 -369 113 -85 36 -178 69 -208 74 -30 5 -144 8 -254 5 -169 -4 -221 -2 -338 16 -158 24 -193 25 -260 7z m253 -33 c72 -13 159 -17 360 -17 l265 -1 145 -62 c198 -84 289 -113 386 -123 98 -10 177 -44 243 -104 57 -53 81 -105 81 -182 0 -81 -31 -141 -118 -227 l-69 -68 -11 38 c-15 50 -67 112 -108 129 -19 8 -55 14 -82 14 -37 0 -54 5 -68 21 -50 55 -138 87 -249 90 -59 2 -75 7 -112 33 -31 21 -57 31 -91 32 -26 2 -72 12 -102 22 -127 44 -268 49 -365 12 -14 -6 -50 -7 -79 -4 -41 5 -74 0 -146 -20 -51 -15 -114 -30 -140 -33 -45 -5 -48 -4 -83 38 -36 41 -77 144 -77 191 0 82 67 184 145 219 51 24 149 24 275 2z m429 -409 c33 -10 61 -20 61 -24 0 -14 -163 -42 -209 -37 -60 7 -183 49 -174 58 31 31 217 32 322 3z m-326 -30 c148 -62 201 -66 351 -28 128 33 154 29 239 -36 101 -79 168 -102 317 -110 131 -7 166 -17 206 -62 58 -63 78 -162 45 -214 -24 -39 -82 -85 -110 -87 -17 -1 -21 -8 -21 -35 0 -67 -35 -113 -188 -250 -97 -86 -117 -123 -143 -248 -25 -128 -36 -149 -116 -235 -72 -78 -83 -99 -103 -203 -15 -75 -44 -106 -99 -106 -67 0 -75 -22 -66 -185 6 -120 5 -138 -11 -163 -25 -39 -45 -51 -81 -52 -52 0 -76 33 -71 98 8 90 -34 94 -73 7 -11 -23 -18 -61 -17 -90 l1 -50 7 60 c7 62 18 92 46 119 26 27 35 7 11 -25 -19 -27 -22 -47 -27 -163 -5 -107 -9 -138 -26 -166 -28 -48 -66 -60 -101 -34 -37 28 -45 67 -28 135 19 73 19 109 -1 137 -10 15 -14 35 -11 55 3 18 8 51 12 73 7 39 5 43 -21 60 -60 39 -67 70 -34 155 21 53 21 79 -1 79 -23 0 -49 33 -49 61 0 16 9 52 21 80 21 54 27 129 14 171 -4 12 -32 60 -61 105 -30 44 -54 86 -54 91 0 6 9 17 21 26 l21 14 -25 17 c-37 24 -40 40 -21 128 16 73 16 80 0 114 -9 19 -30 52 -47 73 -43 54 -48 106 -18 219 22 86 23 91 6 123 -9 18 -35 54 -58 81 -36 40 -43 55 -47 100 -3 33 1 66 11 89 13 30 21 37 54 42 21 4 74 18 118 31 105 31 151 31 228 -1z m737 -75 c58 -9 170 -61 170 -79 0 -18 -141 13 -207 44 -40 19 -73 37 -73 41 0 8 38 6 110 -6z"/> <path d="M802 2658 c-16 -16 -15 -33 2 -47 18 -15 46 -4 46 18 0 17 -18 41 -30 41 -3 0 -11 -5 -18 -12z m30 -23 c0 -5 -5 -11 -11 -13 -6 -2 -11 4 -11 13 0 9 5 15 11 13 6 -2 11 -8 11 -13z"/> <path d="M1195 2545 c-38 -13 -74 -27 -80 -30 -15 -6 37 1 55 8 73 30 126 39 183 33 73 -7 149 -34 140 -49 -4 -6 -1 -7 6 -2 11 6 63 -10 114 -36 10 -5 22 -7 27 -4 6 4 10 3 10 -2 0 -4 50 -7 110 -5 100 3 114 1 148 -19 43 -26 131 -96 150 -118 7 -9 15 -15 17 -13 3 1 29 -10 58 -24 134 -65 217 -34 247 94 4 17 4 35 -1 38 -5 3 -9 -10 -9 -29 0 -39 -34 -96 -70 -115 -54 -28 -143 0 -250 78 -30 22 -82 58 -114 80 l-59 40 -106 0 c-111 0 -159 11 -291 65 -96 40 -194 44 -285 10z"/> <path d="M2350 2543 c0 -4 5 -15 10 -23 8 -13 10 -13 10 2 0 9 -4 20 -10 23 -5 3 -10 3 -10 -2z"/> <path d="M2070 2509 c-9 -15 -8 -24 1 -35 18 -21 57 -18 64 6 14 44 -44 69 -65 29z m47 -5 c1 -5 -2 -16 -7 -24 -12 -20 -35 2 -26 25 6 17 27 16 33 -1z"/> <path d="M820 2508 c-19 -6 -66 -8 -104 -5 -48 3 -64 2 -52 -5 17 -9 41 -9 231 8 39 3 97 1 130 -4 33 -6 64 -7 68 -3 9 9 -118 22 -192 20 -25 0 -62 -5 -81 -11z"/> <path d="M2370 2464 c0 -19 4 -33 8 -30 8 5 4 66 -4 66 -2 0 -4 -16 -4 -36z"/> <path d="M2135 2440 c-9 -15 4 -30 26 -30 12 0 19 7 19 20 0 21 -33 29 -45 10z"/> <path d="M935 2353 c-32 -8 -84 -51 -101 -85 -18 -35 -20 -101 -5 -138 49 -117 217 -136 285 -33 48 74 46 139 -7 200 -47 54 -104 72 -172 56z m123 -29 c44 -26 65 -63 70 -121 4 -45 0 -59 -22 -93 -27 -41 -78 -70 -124 -70 -45 0 -107 37 -130 79 -58 102 12 221 130 221 28 0 62 -7 76 -16z"/> <path d="M1301 2290 c-47 -11 -85 -43 -89 -73 -5 -37 26 -42 103 -16 113 38 215 6 290 -92 23 -30 50 -55 61 -57 30 -4 47 21 39 59 -19 87 -172 182 -300 186 -38 1 -85 -2 -104 -7z m242 -45 c71 -34 133 -93 142 -135 4 -17 5 -34 2 -37 -12 -12 -45 12 -82 59 -46 58 -88 83 -169 100 -52 11 -64 10 -121 -10 -35 -12 -69 -22 -74 -22 -17 0 -13 25 8 44 30 27 70 36 156 32 62 -2 93 -9 138 -31z"/> <path d="M1715 2220 c-8 -25 1 -40 25 -40 21 0 40 28 33 48 -8 20 -51 14 -58 -8z m43 -13 c2 -10 -3 -17 -12 -17 -18 0 -29 16 -21 31 9 14 29 6 33 -14z"/> <path d="M2158 2125 c-3 -33 -9 -69 -12 -80 -4 -11 1 -5 9 14 10 19 15 53 13 80 l-3 46 -7 -60z"/> <path d="M1868 2150 c-59 -32 -83 -74 -83 -147 0 -69 17 -101 76 -141 28 -20 44 -23 92 -20 90 7 146 60 155 146 5 61 -17 112 -65 149 -46 36 -123 41 -175 13z m152 -15 c37 -19 57 -45 69 -90 39 -149 -138 -258 -245 -151 -126 126 16 321 176 241z"/> <path d="M1531 2140 c-1 -31 16 -50 44 -49 16 0 15 2 -7 10 -18 7 -28 19 -31 37 l-4 27 -2 -25z"/> <path d="M1382 2123 c2 -10 10 -18 18 -18 8 0 16 8 18 18 2 12 -3 17 -18 17 -15 0 -20 -5 -18 -17z"/> <path d="M1170 2093 c-100 -38 -140 -168 -79 -258 27 -40 90 -75 136 -75 l31 0 -13 -42 c-21 -71 8 -117 61 -97 24 8 57 55 51 72 -2 6 -12 -3 -22 -21 -24 -40 -54 -51 -72 -26 -24 33 4 98 67 152 44 38 50 41 50 22 0 -42 43 -101 94 -127 38 -20 114 -20 154 1 93 48 121 178 54 257 -64 77 -171 87 -242 23 l-37 -34 -7 32 c-8 43 -48 92 -89 112 -34 15 -106 20 -137 9z m124 -17 c44 -18 83 -71 92 -123 8 -55 -24 -124 -72 -154 -49 -30 -123 -29 -169 2 -37 25 -75 90 -75 127 0 29 26 91 48 116 39 43 115 57 176 32z m326 -91 c102 -53 112 -198 19 -268 -34 -25 -109 -33 -149 -17 -42 17 -88 73 -96 116 -12 66 31 150 91 175 33 13 104 10 135 -6z"/> <path d="M1182 1967 c-9 -10 -8 -18 2 -32 18 -25 48 -13 44 17 -4 27 -30 35 -46 15z"/> <path d="M1537 1874 c-12 -12 -8 -42 6 -47 21 -8 39 8 35 29 -3 19 -29 30 -41 18z"/> <path d="M961 1969 c-1 -23 32 -49 60 -48 21 1 20 2 -7 10 -17 5 -36 19 -42 31 -7 16 -11 18 -11 7z"/> <path d="M896 1904 c-9 -8 -16 -23 -16 -33 0 -20 30 -51 48 -51 17 0 52 37 52 54 0 20 -28 46 -50 46 -10 0 -26 -7 -34 -16z m62 -22 c5 -30 -14 -51 -38 -45 -25 7 -35 39 -19 59 18 22 53 13 57 -14z"/> <path d="M1060 1826 c0 -23 42 -68 76 -82 39 -16 74 -18 74 -4 0 6 -11 10 -25 10 -39 0 -83 27 -100 60 -17 33 -25 38 -25 16z"/> <path d="M1822 1818 c7 -20 53 -21 68 -3 12 15 11 15 -15 3 -22 -10 -29 -10 -33 0 -2 6 -8 12 -14 12 -5 0 -8 -6 -6 -12z"/> <path d="M1903 1737 c-92 -95 -137 -159 -148 -212 -4 -17 9 1 29 42 26 51 62 98 126 164 49 51 88 94 86 96 -1 2 -43 -39 -93 -90z"/> <path d="M1787 1773 c-13 -12 -7 -41 10 -47 21 -8 48 17 40 38 -6 16 -38 22 -50 9z m36 -18 c7 -16 -8 -29 -23 -20 -15 9 -12 35 4 35 8 0 16 -7 19 -15z"/> <path d="M980 1708 c-45 -30 -60 -61 -60 -123 0 -37 8 -63 29 -101 28 -48 132 -154 152 -154 19 0 6 16 -41 52 -119 91 -159 234 -83 304 29 27 87 32 142 13 18 -6 35 -9 38 -5 9 8 -45 27 -97 33 -36 4 -52 0 -80 -19z"/> <path d="M1003 1680 c-65 -39 -66 -145 -2 -223 42 -51 159 -125 242 -154 63 -22 84 -25 167 -21 70 4 107 11 141 27 66 31 103 73 103 116 0 47 -48 112 -104 142 -42 23 -52 24 -151 17 -127 -8 -160 1 -214 56 -58 60 -126 75 -182 40z m82 -19 c-4 -15 9 -35 56 -81 51 -51 66 -60 86 -55 15 3 22 2 19 -4 -12 -19 35 -23 55 -5 10 9 19 12 19 6 0 -16 108 -11 115 6 3 8 14 10 29 6 17 -4 27 -1 34 12 10 18 12 18 46 2 34 -17 78 -71 90 -114 12 -39 -76 -123 -95 -93 -5 8 -7 20 -4 27 3 8 -2 20 -10 28 -8 8 -18 20 -22 27 -5 7 -24 26 -45 43 -41 36 -92 40 -114 9 -18 -25 -8 -42 43 -67 49 -25 70 -57 46 -71 -9 -6 -21 -3 -31 6 -12 11 -22 13 -34 6 -12 -6 -19 -5 -25 4 -10 17 -43 30 -43 17 0 -16 -27 -11 -34 6 -4 11 -14 15 -31 12 -13 -3 -22 -2 -20 3 3 4 -5 11 -17 15 -13 4 -23 5 -23 3 0 -2 -11 4 -24 13 -13 9 -30 14 -37 11 -10 -4 -12 0 -8 13 4 11 4 16 -1 12 -4 -4 -14 -3 -21 3 -9 7 -19 7 -33 0 -16 -9 -23 -7 -39 14 -10 13 -25 44 -31 68 -22 75 16 134 87 136 19 1 22 -3 17 -18z m45 0 c0 -5 -7 -14 -15 -21 -13 -10 -15 -9 -15 9 0 12 6 21 15 21 8 0 15 -4 15 -9z m40 -66 c-17 -21 -34 -4 -25 25 6 20 9 21 23 7 13 -13 13 -19 2 -32z m55 -10 c18 -14 18 -17 3 -31 -20 -21 -38 -10 -38 22 0 28 7 29 35 9z m75 -34 c-1 -34 -40 -36 -40 -1 0 13 5 17 20 13 11 -3 20 -8 20 -12z m122 -13 c-8 -8 -16 -7 -28 3 -15 12 -15 14 7 19 26 7 37 -6 21 -22z m66 20 c-6 -18 -28 -21 -28 -4 0 9 7 16 16 16 9 0 14 -5 12 -12z m-125 -18 c-3 -11 -9 -20 -14 -20 -4 0 -13 9 -19 20 -9 17 -8 20 14 20 19 0 23 -4 19 -20z m78 -83 c43 -29 79 -82 79 -118 0 -16 -2 -29 -4 -29 -2 0 -11 -3 -20 -6 -11 -4 -16 -1 -16 10 0 35 -32 76 -78 102 -26 15 -49 29 -51 30 -2 2 -1 10 2 19 9 22 49 19 88 -8z m-361 -28 c0 -18 -2 -19 -15 -9 -8 7 -15 16 -15 21 0 5 7 9 15 9 9 0 15 -9 15 -21z m60 -34 c0 -23 -2 -24 -20 -13 -23 15 -25 24 -7 31 23 10 27 7 27 -18z m58 -41 c-3 -13 -5 -13 -23 -1 -17 13 -17 17 -5 32 12 15 14 15 22 0 5 -8 8 -22 6 -31z m61 -6 c11 -29 9 -30 -22 -23 -23 6 -24 9 -14 26 16 25 26 24 36 -3z m79 -26 c4 -23 0 -25 -35 -16 -19 5 -20 9 -10 25 16 25 41 20 45 -9z m52 -20 c-29 -5 -36 4 -19 24 12 14 14 14 27 -3 11 -16 11 -18 -8 -21z m70 7 c0 -5 -7 -9 -15 -9 -15 0 -20 12 -9 23 8 8 24 -1 24 -14z"/> <path d="M1430 1670 c0 -6 15 -19 33 -30 40 -25 125 -27 168 -4 45 23 29 28 -31 8 -42 -14 -58 -15 -90 -5 -20 6 -43 18 -50 26 -14 17 -30 20 -30 5z"/> <path d="M1590 1584 c0 -3 15 -23 33 -45 100 -116 48 -244 -106 -265 -26 -4 -47 -11 -47 -15 0 -23 122 9 164 42 57 45 74 125 40 191 -32 64 -84 121 -84 92z"/> <path d="M1746 1479 c-2 -8 -7 -49 -10 -91 -8 -108 -27 -147 -101 -213 -64 -56 -76 -77 -105 -183 -9 -36 -20 -49 -60 -74 -35 -21 -56 -44 -71 -75 -12 -24 -19 -46 -17 -49 3 -2 13 14 23 36 11 24 38 55 71 80 42 32 56 49 65 83 22 82 42 115 105 177 73 72 90 109 103 230 9 79 7 112 -3 79z"/> <path d="M992 1308 c-36 -36 6 -91 46 -62 35 24 23 74 -18 74 -9 0 -21 -5 -28 -12z m48 -13 c17 -20 5 -45 -20 -45 -11 0 -23 7 -26 15 -6 15 11 45 26 45 4 0 13 -7 20 -15z"/> <path d="M1070 1247 c0 -19 10 -27 26 -20 21 8 17 33 -6 33 -11 0 -20 -6 -20 -13z"/> <path d="M1444 1195 c-4 -9 -2 -21 4 -27 15 -15 44 -1 40 19 -4 23 -36 29 -44 8z m31 -4 c3 -5 1 -12 -5 -16 -5 -3 -10 1 -10 9 0 18 6 21 15 7z"/> <path d="M1188 1190 c-46 -14 -90 -51 -109 -94 -78 -173 127 -331 272 -209 40 34 59 79 59 138 0 78 -51 143 -128 165 -42 11 -56 11 -94 0z m140 -36 c15 -11 37 -40 50 -65 73 -140 -86 -288 -221 -206 -56 34 -77 72 -77 137 0 65 29 117 82 144 43 22 129 17 166 -10z"/> <path d="M1435 960 c-4 -6 -3 -10 2 -9 20 3 27 -2 13 -11 -13 -8 -12 -10 3 -10 10 0 17 8 17 20 0 21 -24 28 -35 10z"/> <path d="M1095 860 c-7 -11 12 -51 29 -62 13 -9 48 1 58 16 13 19 9 31 -4 14 -30 -36 -67 -25 -71 21 -1 24 -3 25 -12 11z"/> <path d="M1246 754 c-18 -18 -6 -54 19 -54 26 0 46 29 35 51 -13 23 -33 24 -54 3z m44 -20 c0 -8 -9 -14 -20 -14 -22 0 -28 26 -7 33 16 6 27 -1 27 -19z"/> <path d="M1371 754 c0 -11 3 -14 6 -6 3 7 2 16 -1 19 -3 4 -6 -2 -5 -13z"/> <path d="M1367 713 c-4 -3 -7 -20 -6 -37 l1 -31 8 35 c9 36 8 45 -3 33z"/> <path d="M1357 613 c-4 -3 -7 -16 -7 -27 -1 -36 -38 -106 -62 -116 -16 -6 -18 -9 -6 -9 33 -2 63 45 78 122 8 39 7 41 -3 30z"/> <path d="M1112 583 c5 -26 38 -29 38 -4 0 15 -6 21 -21 21 -14 0 -19 -5 -17 -17z m28 -3 c0 -5 -2 -10 -4 -10 -3 0 -8 5 -11 10 -3 6 -1 10 4 10 6 0 11 -4 11 -10z"/> <path d="M1148 307 c-6 -48 -30 -87 -55 -87 -7 0 -13 -5 -13 -10 0 -6 13 -4 30 5 32 16 55 72 48 115 -2 17 -6 9 -10 -23z"/> </g> </svg> 